<svg width="35" height="35" fill="none" xmlns="http://www.w3.org/2000/svg"><path d="M35 17.5C35 7.835 27.165 0 17.5 0S0 7.835 0 17.5 7.835 35 17.5 35 35 27.165 35 17.5zm-33.41 0c0-8.787 7.123-15.91 15.91-15.91 8.787 0 15.91 7.123 15.91 15.91 0 8.787-7.123 15.91-15.91 15.91-8.787 0-15.91-7.123-15.91-15.91z" fill="#212121"/><path d="M18.172 27.6V17.5h3.333l.526-3.347h-3.86v-1.679c0-.873.287-1.707 1.54-1.707h2.506v-3.34H18.66c-2.99 0-3.807 1.969-3.807 4.699v2.025h-2.052V17.5h2.052v10.1h3.319z" fill="#212121"/></svg>