<svg width="60" height="60" fill="none" xmlns="http://www.w3.org/2000/svg"><path d="M55.977 14.941c-2.682-4.596-6.321-8.235-10.917-10.918C40.462 1.341 35.444 0 30 0c-5.442 0-10.462 1.341-15.058 4.023-4.596 2.683-8.235 6.322-10.918 10.918C1.34 19.538 0 24.558 0 30.001c0 5.442 1.341 10.46 4.023 15.058 2.683 4.596 6.322 8.235 10.918 10.918C19.538 58.659 24.559 60 30.002 60c5.442 0 10.462-1.341 15.058-4.023 4.597-2.682 8.236-6.322 10.918-10.918C58.659 40.462 60 35.443 60 30s-1.341-10.463-4.023-15.059zM49.453 25.43l-21.21 21.21a2.445 2.445 0 0 1-1.798.743c-.677 0-1.262-.247-1.757-.743L10.547 32.5c-.469-.47-.703-1.054-.703-1.758 0-.729.234-1.328.703-1.797L14.1 25.43c.496-.495 1.08-.742 1.758-.742.678 0 1.264.247 1.758.742l8.829 8.828 15.937-15.899c.495-.494 1.08-.742 1.758-.742.677 0 1.263.248 1.758.742l3.554 3.516c.47.469.704 1.068.704 1.797 0 .703-.234 1.289-.704 1.758z" fill="#1A1919"/></svg>