<svg width="7" height="10" fill="none" xmlns="http://www.w3.org/2000/svg"><path d="M6.835 2.489c-.037-.133-.11-.276-.164-.4C6.02.55 4.6 0 3.453 0 1.917 0 .226 1.013 0 3.102v.427c0 .018.006.178.015.258.127.995.925 2.053 1.52 3.049C2.178 7.902 2.844 8.95 3.503 10c.407-.684.812-1.378 1.209-2.044.108-.196.234-.392.342-.578.072-.125.21-.249.273-.365C5.968 5.858 7 4.693 7 3.547v-.471c0-.125-.157-.56-.165-.587zM3.48 4.63c-.452 0-.946-.222-1.19-.835-.036-.098-.033-.294-.033-.312V3.21c0-.782.675-1.138 1.262-1.138.722 0 1.281.57 1.281 1.28 0 .711-.598 1.28-1.32 1.28z" fill="#fff"/></svg>