<svg width="9" height="10" fill="none" xmlns="http://www.w3.org/2000/svg"><path d="M8.996 7.892a.516.516 0 0 1-.134.424L7.595 9.714A.86.86 0 0 1 6.92 10c-.121 0-.316-.023-.586-.069-.27-.046-.6-.159-.991-.339-.39-.18-.834-.45-1.33-.81-.495-.36-1.022-.855-1.58-1.483A11.332 11.332 0 0 1 1.325 5.9 10.18 10.18 0 0 1 .62 4.666a7.06 7.06 0 0 1-.4-1.027 5.957 5.957 0 0 1-.181-.795 2.91 2.91 0 0 1-.029-.736c.013-.099.041-.2.086-.302a.796.796 0 0 1 .162-.249L1.526.148A.401.401 0 0 1 1.831 0c.082 0 .156.026.219.08a.713.713 0 0 1 .162.195l1.02 2.15a.566.566 0 0 1 .047.372.686.686 0 0 1-.162.339l-.467.519a.183.183 0 0 0-.033.069.288.288 0 0 0-.014.079c.025.148.082.318.171.508.076.17.194.376.353.62.158.244.384.524.676.842.286.325.54.578.762.758.223.18.408.312.558.397.149.085.263.136.343.154l.119.026a.208.208 0 0 0 .062-.016.155.155 0 0 0 .062-.037l.543-.614a.552.552 0 0 1 .4-.17.45.45 0 0 1 .257.064h.01l1.838 1.207a.531.531 0 0 1 .239.35z" fill="#fff"/></svg>