<svg width="9" height="13" fill="none" xmlns="http://www.w3.org/2000/svg"><path d="M8.787 3.236c-.046-.174-.14-.359-.21-.52C7.74.716 5.914 0 4.439 0 2.465 0 .29 1.317 0 4.033v.555c0 .023.008.23.02.335.162 1.294 1.188 2.67 1.955 3.963.824 1.387 1.68 2.75 2.528 4.114.522-.89 1.043-1.791 1.554-2.658.139-.254.3-.508.44-.751.093-.162.27-.323.351-.474C7.673 7.615 9 6.101 9 4.611v-.613c0-.161-.201-.728-.213-.762zM4.475 6.02c-.58 0-1.215-.29-1.529-1.087-.047-.127-.043-.381-.043-.404V4.17c0-1.016.868-1.479 1.622-1.479.93 0 1.648.74 1.648 1.665 0 .924-.769 1.664-1.698 1.664z" fill="#212121"/></svg>