<svg width="12" height="13" fill="none" xmlns="http://www.w3.org/2000/svg"><path d="M11.994 10.26a.66.66 0 0 1-.178.55l-1.69 1.818a1.164 1.164 0 0 1-.66.358 1.588 1.588 0 0 1-.241.014 5.39 5.39 0 0 1-.781-.09c-.36-.06-.8-.206-1.321-.44-.521-.234-1.112-.586-1.773-1.054-.66-.468-1.363-1.11-2.108-1.928a14.795 14.795 0 0 1-1.474-1.817 13.15 13.15 0 0 1-.94-1.605A9.04 9.04 0 0 1 .294 4.73a7.58 7.58 0 0 1-.241-1.032 3.691 3.691 0 0 1-.05-.682l.012-.276c.017-.128.055-.259.114-.392.06-.133.131-.241.216-.324L2.035.193A.54.54 0 0 1 2.44 0a.45.45 0 0 1 .292.103.933.933 0 0 1 .216.255l1.36 2.796a.72.72 0 0 1 .063.482.883.883 0 0 1-.216.44l-.622.675a.236.236 0 0 0-.045.09.365.365 0 0 0-.019.103c.034.193.11.413.229.66.101.221.258.49.47.806.212.317.512.682.902 1.095.38.423.72.75 1.016.985.296.234.544.406.743.516.2.11.352.177.458.2l.158.034a.283.283 0 0 0 .083-.02.208.208 0 0 0 .083-.048l.724-.8a.745.745 0 0 1 .533-.22c.144 0 .258.028.343.083h.013l2.452 1.57a.69.69 0 0 1 .317.454z" fill="#212121"/></svg>