<svg xmlns="http://www.w3.org/2000/svg" viewBox="0 0 800 800"><path d="M416.66 163.63v-5.07c-1.19 0-2.3-.24-3.32-.67a8.5 8.5 0 0 1-3.76-3.1 8.536 8.536 0 0 1-.79-8.09 8.554 8.554 0 0 1 3.1-3.76 8.45 8.45 0 0 1 4.77-1.45c1.19 0 2.3.24 3.32.67 1.52.64 2.84 1.73 3.76 3.1a8.45 8.45 0 0 1 1.45 4.77c0 1.19-.24 2.3-.67 3.32a8.554 8.554 0 0 1-3.1 3.76 8.45 8.45 0 0 1-4.77 1.45v10.14c2.57 0 5.04-.52 7.27-1.47 3.36-1.42 6.2-3.78 8.21-6.76 2.01-2.98 3.2-6.6 3.19-10.45 0-2.57-.52-5.04-1.47-7.27-1.42-3.36-3.78-6.2-6.76-8.21-2.98-2.01-6.6-3.2-10.45-3.19-2.57 0-5.04.52-7.27 1.47-3.36 1.42-6.2 3.78-8.21 6.76-2.01 2.98-3.2 6.6-3.19 10.45 0 2.57.52 5.04 1.47 7.27 1.42 3.36 3.78 6.2 6.76 8.22 2.97 2.01 6.6 3.2 10.45 3.19v-5.08h.01zm69.9-10.88v-5.07h-9.41c-5.56 0-10.92-1.3-15.81-3.68-4.89-2.39-9.29-5.87-12.88-10.22-3.72-4.51-8.39-8.2-13.72-10.77a40.446 40.446 0 0 0-17.6-4.01 40.49 40.49 0 0 0-17.61 4.01c-5.33 2.57-10 6.26-13.72 10.77-3.59 4.35-7.99 7.83-12.88 10.22-4.89 2.39-10.25 3.68-15.8 3.68h-13.51c-3.36 0-6.58.68-9.51 1.92a24.517 24.517 0 0 0-10.74 8.84 24.298 24.298 0 0 0-4.17 13.66v13.59c0 1.34.54 2.64 1.49 3.59a5.14 5.14 0 0 0 3.59 1.49h181.63c1.34 0 2.64-.54 3.59-1.49.95-.95 1.49-2.25 1.49-3.59V172.1c0-3.36-.68-6.58-1.92-9.51a24.517 24.517 0 0 0-8.84-10.74 24.298 24.298 0 0 0-13.66-4.17v10.14c1.98 0 3.85.4 5.55 1.12 2.55 1.08 4.74 2.9 6.28 5.18s2.43 5 2.43 7.98v8.52H329.35v-8.52c0-1.98.4-3.85 1.12-5.55 1.08-2.55 2.9-4.74 5.18-6.28s5-2.43 7.98-2.43h13.51c7.14 0 14.04-1.68 20.26-4.71 6.22-3.04 11.76-7.43 16.25-12.88 2.79-3.39 6.31-6.16 10.3-8.09 3.99-1.92 8.45-3 13.2-3 4.74 0 9.2 1.08 13.19 3s7.5 4.7 10.3 8.09c4.49 5.45 10.04 9.84 16.26 12.88 6.22 3.04 13.12 4.71 20.26 4.71h9.41v-5.09h-.01z"/><path d="M308.82 168.84v-5.07h-47.91c-3.02 0-5.92.61-8.55 1.73a22.038 22.038 0 0 0-9.66 7.95 21.81 21.81 0 0 0-3.75 12.29v391.3c0 3.02.61 5.92 1.73 8.55 1.67 3.95 4.45 7.29 7.95 9.66s7.75 3.76 12.29 3.76H563.1c3.02 0 5.92-.61 8.55-1.73 3.95-1.67 7.29-4.45 9.66-7.95a21.81 21.81 0 0 0 3.75-12.29v-391.3c0-3.02-.61-5.92-1.73-8.55a22.038 22.038 0 0 0-7.95-9.66c-3.5-2.37-7.75-3.76-12.29-3.76h-41.72c-1.43 0-2.79.6-3.75 1.66a5.087 5.087 0 0 0-1.3 3.89c.09.94.14 1.87.14 2.79v24.14H313.73V172.1c0-.92.05-1.85.14-2.79a5.1 5.1 0 0 0-1.3-3.89 5.052 5.052 0 0 0-3.75-1.66v5.08l-5.05-.47c-.11 1.21-.18 2.46-.18 3.73v29.21c0 1.34.54 2.64 1.49 3.59a5.14 5.14 0 0 0 3.59 1.49h212.87c1.34 0 2.64-.54 3.59-1.49.95-.95 1.49-2.25 1.49-3.59V172.1c0-1.28-.07-2.52-.18-3.73l-5.05.47v5.07h41.72c1.65 0 3.19.33 4.6.93 2.11.89 3.93 2.4 5.2 4.29 1.28 1.89 2.01 4.14 2.02 6.61v391.3c0 1.65-.33 3.19-.93 4.6-.89 2.11-2.4 3.93-4.29 5.21-1.89 1.28-4.14 2.01-6.61 2.02H260.91c-1.65 0-3.19-.33-4.6-.93-2.11-.89-3.93-2.4-5.2-4.29-1.28-1.89-2.01-4.14-2.02-6.61v-391.3c0-1.65.33-3.19.93-4.6.89-2.11 2.4-3.93 4.29-5.21 1.89-1.28 4.14-2.01 6.61-2.02h47.91v-5.07l-5.05-.47 5.04.47z"/><path d="M324.63 489.5c-.79 0-1.56.39-2.01 1.11l-25.18 40.22-9.61-12.38c-.3-.39-.78-.63-1.28-.63-.13 0-.25.01-.38.05-.87.21-1.41 1.09-1.2 1.96l6.51 26.98c.51 2.05 1.96 3.87 4.06 4.72a6.845 6.845 0 0 0 8.9-3.76l.33-.81 22.05-54.22a2.36 2.36 0 0 0-.93-2.89c-.4-.24-.83-.35-1.26-.35zm0-83.97c-.79 0-1.56.39-2.01 1.11l-25.18 40.22-9.61-12.38c-.3-.39-.78-.63-1.28-.63-.13 0-.25.01-.38.05-.87.21-1.41 1.09-1.2 1.96l6.51 26.98c.51 2.05 1.96 3.87 4.06 4.72.84.34 1.71.51 2.57.51 2.69 0 5.25-1.61 6.33-4.26l.33-.81 22.05-54.22c.43-1.04.05-2.27-.93-2.89-.4-.24-.83-.36-1.26-.36zM541.69 259.4H388.25c-4.2 0-7.61 3.41-7.61 7.61s3.41 7.61 7.61 7.61h153.44c4.2 0 7.61-3.41 7.61-7.61s-3.41-7.61-7.61-7.61zm-51.94 25.98h-101.5c-4.2 0-7.61 3.41-7.61 7.61s3.41 7.61 7.61 7.61h101.5c4.2 0 7.61-3.41 7.61-7.61 0-4.21-3.41-7.61-7.61-7.61zm51.94 50.5H388.25c-4.2 0-7.61 3.41-7.61 7.61s3.41 7.61 7.61 7.61h153.44c4.2 0 7.61-3.41 7.61-7.61s-3.41-7.61-7.61-7.61zm-51.94 25.98h-101.5c-4.2 0-7.61 3.41-7.61 7.61s3.41 7.61 7.61 7.61h101.5c4.2 0 7.61-3.41 7.61-7.61 0-4.21-3.41-7.61-7.61-7.61zm51.94 54.34H388.25c-4.2 0-7.61 3.41-7.61 7.61s3.41 7.61 7.61 7.61h153.44c4.2 0 7.61-3.41 7.61-7.61s-3.41-7.61-7.61-7.61zm-51.94 25.98h-101.5c-4.2 0-7.61 3.41-7.61 7.61s3.41 7.61 7.61 7.61h101.5c4.2 0 7.61-3.41 7.61-7.61s-3.41-7.61-7.61-7.61zm51.94 57.99H388.25c-4.2 0-7.61 3.41-7.61 7.61s3.41 7.61 7.61 7.61h153.44c4.2 0 7.61-3.41 7.61-7.61s-3.41-7.61-7.61-7.61zm-51.94 25.97h-101.5c-4.2 0-7.61 3.41-7.61 7.61s3.41 7.61 7.61 7.61h101.5c4.2 0 7.61-3.41 7.61-7.61s-3.41-7.61-7.61-7.61zM280.61 330.8c-1.27 0-2.54.49-3.51 1.46a4.973 4.973 0 0 0 0 7.03l17.19 17.19-17.19 17.19a4.973 4.973 0 0 0 0 7.03c.97.97 2.24 1.46 3.51 1.46 1.27 0 2.54-.49 3.51-1.46l17.19-17.19 17.19 17.19c.97.97 2.24 1.46 3.51 1.46 1.27 0 2.54-.49 3.51-1.46a4.973 4.973 0 0 0 0-7.03l-17.19-17.19 17.19-17.19a4.973 4.973 0 0 0 0-7.03 4.954 4.954 0 0 0-3.51-1.46c-1.27 0-2.54.49-3.51 1.46l-17.19 17.19-17.19-17.19a4.954 4.954 0 0 0-3.51-1.46zm44.02-79.81c-.79 0-1.56.39-2.01 1.11l-25.18 40.22-9.61-12.38c-.3-.39-.78-.63-1.28-.63-.13 0-.25.01-.38.05-.87.21-1.41 1.09-1.2 1.96l6.51 26.98c.51 2.05 1.96 3.87 4.06 4.72a6.845 6.845 0 0 0 8.9-3.76l.33-.81 22.05-54.22a2.36 2.36 0 0 0-.93-2.89c-.4-.24-.83-.35-1.26-.35zm6.59 6.49"/></svg>