<svg version="1.1" id="Layer_1" xmlns="http://www.w3.org/2000/svg" x="0" y="0" viewBox="0 0 1000 1000" xml:space="preserve"><style>.st4{stroke-miterlimit:10;fill:#1d1d1b;stroke:#1d1d1b}</style><g id="NewGroupe0_9_"><g id="NewGroup9-0"><path class="st4" d="M264.41 359.96c0-2.7 1.37-5.21 3.63-6.68l151.11-97.69a7.93 7.93 0 0 1 4.31-1.27c1.51 0 3 .42 4.32 1.27l151.11 97.68a7.934 7.934 0 0 1 3.63 6.68v261.82h-23.97V390.13c0-1.9-.77-3.75-2.11-5.09a7.258 7.258 0 0 0-5.09-2.11H295.58c-1.9 0-3.75.77-5.09 2.11a7.258 7.258 0 0 0-2.11 5.09v231.64h-23.97V359.96zm38.37 58.31v-20.93h241.36v20.93H302.78zm0 52.03h241.36v23.21H302.78V470.3zm241.36-14.4H302.78v-23.21h241.36v23.21zM257.2 636.19h38.38c1.9 0 3.75-.77 5.09-2.11a7.258 7.258 0 0 0 2.11-5.09V507.92h241.36v121.06c0 1.9.77 3.75 2.11 5.09a7.258 7.258 0 0 0 5.09 2.11h38.38c1.9 0 3.75-.77 5.09-2.11a7.258 7.258 0 0 0 2.11-5.09V359.96c0-7.59-3.85-14.66-10.22-18.78L435.6 243.5a22.32 22.32 0 0 0-12.14-3.58c-4.22 0-8.45 1.2-12.14 3.58l-151.11 97.68a22.367 22.367 0 0 0-10.22 18.78v269.02c0 1.9.77 3.75 2.11 5.09a7.266 7.266 0 0 0 5.1 2.12zm408.33-115.66h10.99v11.17c0 3.98 3.23 7.2 7.2 7.2 3.98 0 7.2-3.23 7.2-7.2v-11.17h10.99v30.99h-36.38v-30.99zm-7.2 45.39h50.79c1.9 0 3.75-.77 5.09-2.11a7.258 7.258 0 0 0 2.11-5.09v-45.4c0-1.9-.77-3.75-2.11-5.09a7.258 7.258 0 0 0-5.09-2.11h-50.79c-1.9 0-3.75.77-5.09 2.11a7.258 7.258 0 0 0-2.11 5.09v45.4c0 1.9.77 3.75 2.11 5.09a7.24 7.24 0 0 0 5.09 2.11z"/><path class="st4" d="M326.42 589.08h10.99v11.17c0 3.98 3.23 7.2 7.2 7.2 3.98 0 7.2-3.23 7.2-7.2v-11.17h10.99v30.99h-36.38v-30.99zm-7.21-14.41c-1.9 0-3.75.77-5.09 2.11a7.258 7.258 0 0 0-2.11 5.09v45.4c0 1.9.77 3.75 2.11 5.09a7.258 7.258 0 0 0 5.09 2.11H370c1.9 0 3.75-.77 5.09-2.11a7.258 7.258 0 0 0 2.11-5.09v-45.4c0-1.9-.77-3.75-2.11-5.09a7.258 7.258 0 0 0-5.09-2.11h-50.79zm86.45 14.41h10.99v11.17c0 3.98 3.23 7.2 7.2 7.2 3.98 0 7.2-3.23 7.2-7.2v-11.17h10.99v30.99h-36.38v-30.99zm-7.2-14.41c-1.9 0-3.75.77-5.09 2.11a7.258 7.258 0 0 0-2.11 5.09v45.4c0 1.9.77 3.75 2.11 5.09a7.258 7.258 0 0 0 5.09 2.11h50.79c1.9 0 3.75-.77 5.09-2.11a7.258 7.258 0 0 0 2.11-5.09v-45.4c0-1.9-.77-3.75-2.11-5.09a7.258 7.258 0 0 0-5.09-2.11h-50.79zm86.44 14.41h10.99v11.17c0 3.98 3.23 7.2 7.2 7.2 3.98 0 7.2-3.23 7.2-7.2v-11.17h10.99v30.99H484.9v-30.99zm-7.2-14.41c-1.9 0-3.75.77-5.09 2.11a7.258 7.258 0 0 0-2.11 5.09v45.4c0 1.9.77 3.75 2.11 5.09a7.258 7.258 0 0 0 5.09 2.11h50.79c1.9 0 3.75-.77 5.09-2.11a7.258 7.258 0 0 0 2.11-5.09v-45.4c0-1.9-.77-3.75-2.11-5.09a7.258 7.258 0 0 0-5.09-2.11H477.7zm221.51 18.01h10.99v11.17c0 3.98 3.23 7.2 7.2 7.2 3.98 0 7.2-3.23 7.2-7.2v-11.17h10.99v30.99h-36.38v-30.99zm-12.29-12.29a7.258 7.258 0 0 0-2.11 5.09v45.4c0 1.9.77 3.75 2.11 5.09a7.258 7.258 0 0 0 5.09 2.11h50.79c1.9 0 3.75-.77 5.09-2.11a7.258 7.258 0 0 0 2.11-5.09v-45.4c0-1.9-.77-3.75-2.11-5.09a7.258 7.258 0 0 0-5.09-2.11h-50.79c-1.9 0-3.75.76-5.09 2.11zm-62.63 12.29h10.99v11.17c0 3.98 3.23 7.2 7.2 7.2 3.98 0 7.2-3.23 7.2-7.2v-11.17h10.98v30.99h-36.38v-30.99h.01zm-7.2 45.4h50.79c1.9 0 3.75-.77 5.09-2.11a7.258 7.258 0 0 0 2.11-5.09v-45.4c0-1.9-.77-3.75-2.11-5.09a7.258 7.258 0 0 0-5.09-2.11h-50.79c-1.9 0-3.75.77-5.09 2.11a7.258 7.258 0 0 0-2.11 5.09v45.4c0 1.9.77 3.75 2.11 5.09a7.24 7.24 0 0 0 5.09 2.11z"/></g><path d="M370.37 786.98L357.11 831c-.59 1.65-1.85 2.77-3.43 2.77-1.65 0-2.9-1.19-3.43-2.71l-9.83-38.01-9.97 37.95c-.59 1.65-1.85 2.77-3.43 2.77s-2.9-.99-3.43-2.71l-13.26-44.08c-.86-2.9.26-4.75 2.57-4.75 1.45 0 2.84.79 3.37 2.57l10.82 37.62 9.97-37.22c.33-1.32 1.72-2.31 3.3-2.31 1.39 0 2.84.79 3.23 2.24l10.1 37.55 10.96-38.21c.46-1.58 1.52-2.24 3.37-2.24 2.42 0 3.08 2.25 2.35 4.75zm34.19 28.78v14.72c0 1.91-1.45 3.37-3.37 3.37s-3.37-1.45-3.37-3.37v-2.44c-3.04 3.7-7.52 6-12.74 6-9.63 0-16.89-7.85-16.89-18.28 0-10.43 7.85-18.35 18.21-18.35 10.31 0 18.1 7.92 18.16 18.35zm-6.46 0c0-7.06-5.02-12.41-11.68-12.41-6.67 0-11.75 5.35-11.75 12.41 0 7.06 5.08 12.34 11.75 12.34 6.66 0 11.68-5.28 11.68-12.34zm41.57-14.13c-.46 1.85-1.91 2.38-3.63 1.98-8.45-1.65-14.85 1.52-14.85 7.59v19.27c0 2.11-1.12 3.3-3.3 3.3-2.11 0-3.3-1.12-3.3-3.3v-29.5c0-2.11 1.19-3.3 3.3-3.3 2.18 0 3.3 1.12 3.3 3.3v1.25c2.64-3.04 6.67-4.95 11.09-4.95 5.28.01 7.99 1.99 7.39 4.36zm33.73 16.44h-25.08c.99 6.07 5.94 10.3 12.67 10.3 2.71 0 5.87-1.19 7.66-2.51 1.32-.99 3.04-.99 4.16-.07 1.52 1.32 1.58 3.1.13 4.22-2.97 2.38-7.92 4.03-11.95 4.03-11.02 0-18.81-7.59-18.81-18.28 0-10.76 7.39-18.35 17.82-18.35 10.29 0 16.43 7.33 16.43 17.75.01 1.72-1.25 2.91-3.03 2.91zm-25.01-5.28h21.98c-.79-5.68-4.42-9.7-10.36-9.7-6.54 0-10.63 3.96-11.62 9.7zm70.48 1.45v16.23c0 1.91-1.45 3.37-3.37 3.37-1.91 0-3.37-1.45-3.37-3.37v-16.23c0-7.46-4.49-10.82-10.49-10.82-5.61 0-9.9 3.63-9.9 8.45v18.61c0 1.98-1.39 3.37-3.37 3.37-1.98 0-3.37-1.39-3.37-3.37V785.6c0-1.98 1.39-3.37 3.37-3.37 1.98 0 3.37 1.39 3.37 3.37v16.17c2.77-2.77 6.73-4.42 11.22-4.42 9.05-.01 15.91 5.93 15.91 16.89zm45.74 1.52c0 10.69-7.52 18.28-18.15 18.28-10.69 0-18.21-7.59-18.21-18.28 0-10.76 7.52-18.35 18.21-18.35 10.56 0 18.08 7.59 18.15 18.35zm-29.89 0c0 7.26 4.88 12.34 11.75 12.34 6.86 0 11.68-5.08 11.68-12.34s-4.82-12.41-11.68-12.41c-6.87 0-11.75 5.15-11.75 12.41zm73.05-14.79v29.43c0 1.98-1.39 3.37-3.37 3.37-1.98 0-3.37-1.39-3.37-3.37v-.73c-2.77 2.77-6.73 4.42-11.22 4.42-9.04 0-15.9-5.94-15.9-16.89v-16.23c0-1.91 1.45-3.37 3.37-3.37 1.91 0 3.37 1.45 3.37 3.37v16.23c0 7.46 4.49 10.82 10.49 10.82 5.61 0 9.9-3.63 9.9-8.45v-18.61c0-1.98 1.39-3.37 3.37-3.37 1.98.02 3.36 1.4 3.36 3.38zm37.62 1.65c1.19 1.45 1.12 3.1-.26 4.16-1.45.99-3.63.53-4.95-.73-2.24-2.11-4.62-2.77-7.99-2.77-3.89 0-6.93 1.39-6.93 3.89 0 2.44 1.39 3.89 8.51 5.35 9.9 1.98 13.2 5.48 13.2 10.69 0 6-4.88 10.82-14.19 10.82-6.14 0-11.75-2.11-14.65-5.02-1.32-1.39-1.06-3.43.46-4.62 1.72-1.39 3.56-1.06 4.82.26 1.52 1.65 5.08 3.43 9.11 3.43 5.08 0 7.85-1.85 7.92-4.49.07-2.64-2.11-4.55-8.98-5.81-8.91-1.72-12.67-5.35-12.67-10.43 0-6.73 6.8-9.97 13.53-9.97 5.82.03 10.43 2.01 13.07 5.24zm39.47 15.45h-25.08c.99 6.07 5.94 10.3 12.67 10.3 2.71 0 5.87-1.19 7.66-2.51 1.32-.99 3.04-.99 4.16-.07 1.52 1.32 1.58 3.1.13 4.22-2.97 2.38-7.92 4.03-11.95 4.03-11.02 0-18.81-7.59-18.81-18.28 0-10.76 7.39-18.35 17.82-18.35 10.3 0 16.43 7.33 16.43 17.75.01 1.72-1.25 2.91-3.03 2.91zm-25.01-5.28h21.98c-.79-5.68-4.42-9.7-10.36-9.7-6.54 0-10.63 3.96-11.62 9.7z" fill="#1d1d1b" stroke="#1d1d1b" id="text_9_"/></g></svg>