<svg version="1.1" id="Слой_1" xmlns="http://www.w3.org/2000/svg" x="0" y="0" viewBox="0 0 600 600" xml:space="preserve"><style>.st0{fill:#1d1d1b}</style><path class="st0" d="M275.75 369.26c-5.4-7.34-12.27-13.17-19.97-16.56 1.52-.86 2.94-1.86 4.26-2.99 5.62-4.83 9.19-11.98 9.19-19.97 0-14.56-11.8-26.36-26.36-26.36-14.56 0-26.36 11.8-26.36 26.36 0 8.43 3.97 15.92 10.14 20.75 1.37 1.07 2.84 2.01 4.41 2.79-17.35 8.37-30.33 29.15-30.63 51.2-.02 1.58.64 3.12 1.8 4.19 17.67 16.33 42.58 20.43 63.88 12.3-2.23-2.39-3.52-5.52-3.48-8.8.22-15.55 5.15-30.52 13.12-42.91zm137.29-16.56c1.52-.86 2.94-1.86 4.26-2.99 5.62-4.83 9.19-11.98 9.19-19.97 0-14.56-11.8-26.36-26.36-26.36-14.56 0-26.36 11.8-26.36 26.36 0 8.43 3.97 15.92 10.14 20.75 1.37 1.07 2.84 2.01 4.41 2.79-7.17 3.46-13.57 9.07-18.66 15.99 7.98 12.38 12.9 27.35 13.12 42.89.04 3.29-1.25 6.42-3.48 8.81 21.3 8.13 46.21 4.04 63.88-12.3a5.597 5.597 0 0 0 1.8-4.19c-.31-22.6-13.95-43.84-31.94-51.78z"/><path class="st0" d="M338.35 348.2c1.95-1.01 3.79-2.2 5.49-3.56 7.5-6.02 12.31-15.24 12.31-25.6 0-18.13-14.69-32.82-32.82-32.82-18.13 0-32.82 14.69-32.82 32.82 0 10.12 4.59 19.17 11.8 25.19 1.67 1.4 3.48 2.63 5.4 3.68-22.2 10.03-38.96 36.36-39.35 64.32-.03 1.97.8 3.88 2.25 5.22 29.38 27.15 74.82 27.15 104.2 0a7.071 7.071 0 0 0 2.25-5.22c-.39-27.69-16.83-53.79-38.71-64.03zM455.26 93.39H156.24c-1.93 0-3.49 1.56-3.49 3.49v22.5c0 1.93 1.56 3.49 3.49 3.49h9.02c1.93 0 3.49-1.56 3.49-3.49v-6.5c0-1.93 1.56-3.49 3.49-3.49h267.02c1.93 0 3.49 1.56 3.49 3.49V259.9c0 1.93-1.56 3.49-3.49 3.49H203.92c-1.93 0-3.49 1.56-3.49 3.49v9.02c0 1.93 1.56 3.49 3.49 3.49h251.34c1.93 0 3.49-1.56 3.49-3.49V96.88c0-1.93-1.56-3.49-3.49-3.49z"/><ellipse transform="rotate(-13.286 162.418 169.97)" class="st0" cx="162.46" cy="170" rx="31.7" ry="31.7"/><path class="st0" d="M255.69 209.09H127.3c-8.2 0-14.85 6.65-14.85 14.85v80.64c0 9.74 7.89 17.63 17.63 17.63h9.86v16.87h.01v55.15c0 8.2 6.65 14.85 14.85 14.85h15.3c8.2 0 14.85-6.65 14.85-14.85V236.52h70.74c7.57 0 13.71-6.14 13.71-13.71.01-7.58-6.13-13.72-13.71-13.72zm21.31 1c-5.03 0-9.75-1.95-13.3-5.5-7.33-7.33-7.33-19.26 0-26.59 3.54-3.55 8.27-5.5 13.29-5.5 2.94 0 5.81.68 8.4 1.97l31.96-31.96c-3.58-7.14-2.26-15.93 3.52-21.71 3.55-3.55 8.27-5.5 13.3-5.5 2.45 0 4.83.46 7.08 1.38 2.34.95 4.44 2.34 6.23 4.13 5.77 5.77 7.1 14.55 3.53 21.7l17.86 17.86c2.59-1.29 5.45-1.97 8.4-1.97 2.94 0 5.8.67 8.39 1.97l14.55-14.55c-3.57-7.14-2.24-15.92 3.53-21.69 3.55-3.55 8.27-5.5 13.3-5.5 5.03 0 9.75 1.95 13.29 5.5 3.55 3.55 5.5 8.27 5.5 13.3 0 5.03-1.95 9.75-5.5 13.3-3.54 3.54-8.27 5.5-13.29 5.5-2.94 0-5.81-.68-8.4-1.97L394.1 168.8c3.6 7.15 2.28 15.94-3.51 21.73-3.55 3.55-8.27 5.5-13.3 5.5-5.03 0-9.75-1.95-13.3-5.5-.45-.45-.88-.93-1.29-1.43-4.7-5.73-5.51-13.76-2.27-20.29l-17.87-17.87c-.11.06-.23.11-.35.17a18.966 18.966 0 0 1-8.01 1.78c-2.96 0-5.83-.67-8.42-1.95l-31.97 31.97c3.57 7.14 2.24 15.92-3.53 21.69-3.53 3.54-8.25 5.49-13.28 5.49zm0-25.67c-1.84 0-3.56.72-4.86 2.01-2.68 2.68-2.68 7.04 0 9.73a6.83 6.83 0 0 0 4.86 2.01c1.84 0 3.56-.72 4.86-2.01a6.872 6.872 0 0 0 .01-9.72 6.805 6.805 0 0 0-4.87-2.02zm100.3-14.07c-1.84 0-3.56.72-4.86 2.01a6.861 6.861 0 0 0-.04 9.69c1.3 1.3 3.03 2.02 4.87 2.02 1.84 0 3.56-.72 4.86-2.01 2.5-2.5 2.71-6.46.48-9.2-.13-.16-.28-.33-.45-.49a6.782 6.782 0 0 0-4.86-2.02zm39.74-39.81c-1.84 0-3.56.72-4.86 2.01a6.83 6.83 0 0 0-2.01 4.86c0 1.84.72 3.56 2.01 4.86a6.83 6.83 0 0 0 4.86 2.01c1.84 0 3.56-.72 4.86-2.01a6.83 6.83 0 0 0 2.01-4.86c0-1.84-.72-3.56-2.01-4.86a6.872 6.872 0 0 0-4.86-2.01zm-82.85-3.31c-1.84 0-3.56.71-4.86 2.01a6.83 6.83 0 0 0-2.01 4.86c0 1.84.72 3.56 2.01 4.86.66.66 1.42 1.16 2.27 1.51.82.33 1.68.5 2.57.5 1.84 0 3.56-.72 4.86-2.01 2.68-2.68 2.68-7.04 0-9.73a6.887 6.887 0 0 0-2.27-1.51 6.99 6.99 0 0 0-2.57-.49z"/></svg>