<svg version="1.1" id="Layer_1" xmlns="http://www.w3.org/2000/svg" x="0" y="0" viewBox="0 0 800 800" xml:space="preserve"><style>.st0{display:none}.st1{display:inline}.st2{fill:#243642}</style><g id="NewGroupe0_1_"><g id="NewGroup1-0"><path d="M436.93 401.01c-55.09 0-99.91-44.82-99.91-99.91 0-55.09 44.82-99.91 99.91-99.91s99.91 44.82 99.91 99.91c-.01 55.09-44.82 99.91-99.91 99.91zm-96.16 9.07l-12.86-12.86 19.39-19.35c3.95 4.6 8.24 8.9 12.85 12.85l-19.38 19.36zm-70.1 44.25l44.38-44.28 12.87 12.87-44.38 44.34-12.87-12.93zm166.26-271.3c-65.11 0-118.07 52.97-118.07 118.07 0 22.7 6.45 43.92 17.59 61.94L245 454.29l38.51 38.68 91.47-91.4c18.02 11.15 39.24 17.6 61.95 17.6 65.1 0 118.07-52.97 118.07-118.07 0-65.11-52.97-118.07-118.07-118.07z"/><path d="M464.17 255.69h18.17v90.83h-18.17v-90.83zm-36.33 90.82v-54.5h18.17v54.5h-18.17zm-36.33 0v-18.17h18.17v18.17h-18.17zm54.5-72.66h-36.33v36.33h-36.33v54.5H500.5V237.52h-54.49v36.33z"/><g id="text1o" class="st0"><g class="st1"><path class="st2" d="M328.3 720.68l-1.64 4.98h-3.68l7.44-21.33h3.38l7.35 21.33h-3.68l-1.63-4.98h-7.54zm6.59-2.97l-2.74-8.41h-.09l-2.78 8.41h5.61zm22 7.95l-9.45-15.37-.09.03v15.34h-3.56v-21.33h3.56l9.45 15.37.09-.03v-15.34h3.56v21.33h-3.56zm11.85-4.98l-1.64 4.98h-3.68l7.44-21.33h3.38l7.35 21.33h-3.68l-1.63-4.98h-7.54zm6.59-2.97l-2.74-8.41h-.09l-2.78 8.41h5.61zm22.46 5.11v2.84h-13.55v-21.33h3.56v18.49h9.99zm11.32-18.48h3.97l-7.4 13.87v7.46h-3.54v-7.68l-7.28-13.65h3.97l5.14 10.37 5.14-10.37zm15.21 2.85v18.47h-3.56v-18.47h-6.49v-2.86h16.64v2.86h-6.59zm9.59 18.47v-21.33h3.56v21.33h-3.56zm23.95-6.88c.04 2.15-.66 3.88-2.09 5.21-1.44 1.32-3.37 1.98-5.82 1.98-2.48 0-4.49-.84-6.04-2.51-1.54-1.67-2.31-3.82-2.31-6.42v-4.06c0-2.6.76-4.74 2.29-6.42 1.52-1.68 3.51-2.53 5.96-2.53 2.51 0 4.48.64 5.93 1.92 1.44 1.28 2.14 3.03 2.1 5.26l-.03.09h-3.44c0-1.43-.39-2.52-1.16-3.27-.77-.76-1.9-1.14-3.4-1.14-1.45 0-2.59.57-3.44 1.72-.84 1.15-1.27 2.6-1.27 4.34v4.09c0 1.77.43 3.23 1.29 4.37.86 1.15 2.03 1.72 3.52 1.72 1.46 0 2.56-.38 3.32-1.14.76-.76 1.14-1.86 1.14-3.3h3.43l.02.09zm13.72-.78c-.63-.57-1.75-1.07-3.35-1.52-2.29-.63-4.06-1.47-5.31-2.5s-1.87-2.38-1.87-4.04c0-1.72.68-3.13 2.05-4.25 1.37-1.11 3.13-1.67 5.27-1.67 2.3 0 4.15.62 5.53 1.85 1.38 1.24 2.05 2.76 2 4.58l-.03.09h-3.43c0-1.12-.37-2.02-1.12-2.68-.75-.66-1.74-1-2.98-1-1.2 0-2.13.28-2.78.85-.65.57-.97 1.3-.97 2.2 0 .82.36 1.5 1.07 2.03.71.53 1.89 1.04 3.55 1.52 2.24.63 3.94 1.48 5.11 2.56 1.17 1.08 1.76 2.46 1.76 4.14 0 1.77-.69 3.18-2.08 4.23-1.39 1.05-3.21 1.58-5.46 1.58-2.17 0-4.06-.58-5.67-1.73-1.61-1.15-2.39-2.78-2.34-4.88l.03-.09h3.43c0 1.28.44 2.24 1.33 2.89.88.65 1.96.97 3.23.97 1.26 0 2.24-.27 2.94-.8.7-.53 1.05-1.25 1.05-2.16-.02-.87-.33-1.6-.96-2.17z"/></g></g></g><g id="text_1_" class="st0"><g class="st1"><path class="st2" d="M256.59 646.37l-3.28 9.96h-7.35l14.88-42.66h6.77l14.71 42.66h-7.35l-3.25-9.96h-15.13zm13.19-5.95l-5.48-16.82h-.18l-5.57 16.82h11.23zm44 15.91l-18.9-30.73-.18.06v30.67h-7.12v-42.66h7.12l18.9 30.73.18-.06v-30.67h7.12v42.66h-7.12zm23.7-9.96l-3.28 9.96h-7.35l14.88-42.66h6.77l14.71 42.66h-7.35l-3.25-9.96h-15.13zm13.18-5.95l-5.48-16.82H345l-5.57 16.82h11.23zm44.92 10.22v5.68h-27.1v-42.66h7.12v36.97h19.98zm22.64-36.97h7.94l-14.79 27.74v14.91h-7.09v-15.35l-14.56-27.3h7.94l10.28 20.74 10.28-20.74zm30.41 5.71v36.94h-7.12v-36.94h-12.98v-5.71h33.28v5.71h-13.18zm19.19 36.95v-42.66h7.12v42.66h-7.12zm47.9-13.77c.08 4.3-1.32 7.77-4.19 10.41-2.87 2.65-6.75 3.97-11.63 3.97-4.96 0-8.98-1.67-12.07-5.02-3.09-3.35-4.63-7.63-4.63-12.85v-8.12c0-5.2 1.52-9.48 4.57-12.85 3.05-3.37 7.02-5.05 11.92-5.05 5.02 0 8.97 1.28 11.85 3.84 2.88 2.56 4.28 6.06 4.2 10.52l-.06.18h-6.88c0-2.85-.77-5.03-2.31-6.55-1.54-1.51-3.81-2.27-6.8-2.27-2.89 0-5.18 1.15-6.87 3.44-1.69 2.29-2.53 5.19-2.53 8.69v8.17c0 3.54.86 6.45 2.58 8.75 1.72 2.29 4.06 3.44 7.03 3.44 2.91 0 5.12-.76 6.64-2.29 1.51-1.52 2.27-3.72 2.27-6.59h6.86l.05.18zm27.44-1.55c-1.26-1.13-3.49-2.15-6.69-3.05-4.59-1.27-8.13-2.93-10.62-5-2.49-2.06-3.74-4.75-3.74-8.07 0-3.44 1.37-6.27 4.1-8.5 2.73-2.23 6.25-3.34 10.55-3.34 4.61 0 8.3 1.24 11.06 3.71 2.76 2.47 4.1 5.52 4 9.16l-.06.18h-6.86c0-2.25-.75-4.03-2.24-5.36-1.49-1.33-3.48-1.99-5.96-1.99-2.4 0-4.25.57-5.55 1.7-1.3 1.13-1.95 2.6-1.95 4.39 0 1.64.71 2.99 2.14 4.06s3.79 2.08 7.09 3.03c4.47 1.25 7.88 2.95 10.22 5.11 2.34 2.16 3.52 4.92 3.52 8.28 0 3.54-1.39 6.36-4.16 8.47-2.77 2.11-6.42 3.16-10.93 3.16-4.34 0-8.12-1.15-11.34-3.46-3.22-2.3-4.79-5.56-4.69-9.76l.06-.18h6.86c0 2.56.88 4.49 2.65 5.79 1.77 1.3 3.92 1.95 6.46 1.95 2.52 0 4.48-.53 5.87-1.6 1.4-1.06 2.09-2.5 2.09-4.32.01-1.78-.62-3.23-1.88-4.36z"/></g></g></g></svg>