<svg width="12" height="12" fill="none" xmlns="http://www.w3.org/2000/svg"><path d="M5.32 3.916a.94.94 0 0 0 .065.12c.022.033.055.066.077.1.033.032.066.065.11.098.033.022.077.055.131.066a.675.675 0 0 0 .285.055c.044 0 .1 0 .143-.011a.393.393 0 0 0 .12-.044h.012a.818.818 0 0 0 .131-.077c.033-.022.066-.055.1-.088l.01-.01c.033-.034.055-.067.077-.1a.343.343 0 0 0 .055-.11c0-.01 0-.01.01-.021.023-.044.034-.099.045-.143.01-.044.01-.098.01-.142 0-.044 0-.099-.01-.143-.011-.044-.022-.088-.044-.142a.622.622 0 0 0-.132-.198l-.022-.022c-.033-.033-.066-.055-.11-.088-.043-.022-.076-.043-.12-.065a.618.618 0 0 0-.132-.044c-.055-.011-.099-.011-.142-.011-.044 0-.1 0-.143.01-.044.012-.088.023-.132.045h-.01a1.193 1.193 0 0 0-.121.065c-.044.033-.077.055-.11.088-.033.033-.066.066-.088.099a1.196 1.196 0 0 0-.066.12.677.677 0 0 0-.043.132c-.011.055-.011.099-.011.143 0 .044 0 .098.01.142.012.088.034.132.044.176zM6.845 7.93h-.253V5.244a.283.283 0 0 0-.285-.285H5.155a.283.283 0 0 0-.285.285v.593c0 .153.12.285.285.285h.23v1.82h-.23a.283.283 0 0 0-.285.286v.592c0 .154.12.285.285.285h1.69c.153 0 .285-.12.285-.285v-.592a.293.293 0 0 0-.285-.296z" fill="#5A5A5A"/><path d="M6 0a6 6 0 0 0 0 12A6 6 0 0 0 6 0zm0 11.21A5.215 5.215 0 0 1 .79 6 5.215 5.215 0 0 1 6 .79 5.215 5.215 0 0 1 11.21 6 5.215 5.215 0 0 1 6 11.21z" fill="#5A5A5A"/></svg>