<svg width="37" height="37" fill="none" xmlns="http://www.w3.org/2000/svg"><path d="M18.5 1C8.835 1 1 8.835 1 18.5S8.835 36 18.5 36 36 28.165 36 18.5C35.99 8.84 28.16 1.01 18.5 1zm0 33.833c-9.02 0-16.333-7.312-16.333-16.333 0-9.02 7.312-16.333 16.333-16.333 9.02 0 16.333 7.312 16.333 16.333-.01 9.016-7.317 16.323-16.333 16.333z" fill="#212121" stroke="#fff" stroke-width=".5"/><path d="M22.75 9h-7.5A6.25 6.25 0 0 0 9 15.25v7.5A6.25 6.25 0 0 0 15.25 29h7.5A6.25 6.25 0 0 0 29 22.75v-7.5A6.25 6.25 0 0 0 22.75 9zm4.375 13.75a4.38 4.38 0 0 1-4.375 4.375h-7.5a4.38 4.38 0 0 1-4.375-4.375v-7.5a4.38 4.38 0 0 1 4.375-4.375h7.5a4.38 4.38 0 0 1 4.375 4.375v7.5z" fill="#212121"/><path d="M19 14a5 5 0 1 0 0 10 5 5 0 0 0 0-10zm0 8.125A3.13 3.13 0 0 1 15.875 19 3.129 3.129 0 0 1 19 15.875 3.129 3.129 0 0 1 22.125 19 3.13 3.13 0 0 1 19 22.125zm5.375-7.834a.666.666 0 1 0 0-1.332.666.666 0 0 0 0 1.332z" fill="#212121"/></svg>