<svg width="35" height="35" fill="none" xmlns="http://www.w3.org/2000/svg"><path d="M25.577 14.414c0-3.629-3.011-7.01-7.587-7.01-5.695 0-8.565 4.168-8.565 7.645 0 2.104.78 3.977 2.455 4.674.273.114.52.003.6-.306.053-.215.185-.757.243-.981.08-.307.05-.414-.172-.683-.484-.584-.79-1.335-.79-2.4 0-3.092 2.265-5.86 5.9-5.86 3.218 0 4.987 2.008 4.987 4.688 0 3.53-1.528 6.506-3.8 6.506-1.255 0-2.192-1.058-1.892-2.356.36-1.55 1.058-3.223 1.058-4.342 0-1-.526-1.837-1.616-1.837-1.282 0-2.312 1.353-2.312 3.167 0 1.155.384 1.936.384 1.936l-1.542 6.668c-.208.905-.24 1.9-.212 2.74.088.753.818 1.367 1.451.54.446-.727.925-1.645 1.173-2.564.148-.544.843-3.364.843-3.364.417.812 1.634 1.526 2.929 1.526 3.851-.002 6.465-3.587 6.465-8.387z" fill="#212121"/><path d="M35 17.5C35 7.835 27.165 0 17.5 0S0 7.835 0 17.5 7.835 35 17.5 35 35 27.165 35 17.5zm-33.41 0c0-8.787 7.123-15.91 15.91-15.91 8.787 0 15.91 7.123 15.91 15.91 0 8.787-7.123 15.91-15.91 15.91-8.787 0-15.91-7.123-15.91-15.91z" fill="#212121"/></svg>