<svg width="20" height="20" fill="none" xmlns="http://www.w3.org/2000/svg"><path fill-rule="evenodd" clip-rule="evenodd" d="M1.784 10a15.568 15.568 0 0 0 2.053 2.763c1.493 1.592 3.58 3.07 6.163 3.07 2.584 0 4.67-1.478 6.163-3.07A15.573 15.573 0 0 0 18.216 10a15.568 15.568 0 0 0-2.053-2.763c-1.493-1.592-3.58-3.07-6.163-3.07-2.584 0-4.67 1.478-6.163 3.07A15.562 15.562 0 0 0 1.784 10zm17.383 0l.745-.373-.002-.003-.003-.006-.009-.018a7.37 7.37 0 0 0-.16-.295 17.232 17.232 0 0 0-2.36-3.208C15.747 4.355 13.25 2.5 10 2.5S4.254 4.355 2.621 6.097a17.229 17.229 0 0 0-2.36 3.208 10.279 10.279 0 0 0-.16.295l-.009.018-.002.006-.001.002s-.001.001.744.374l-.745-.373a.833.833 0 0 0 0 .746L.833 10l-.745.373.002.003.002.006.01.018.034.065c.029.054.07.132.126.23a17.232 17.232 0 0 0 2.36 3.208C4.253 15.645 6.75 17.5 10 17.5s5.746-1.855 7.379-3.597a17.235 17.235 0 0 0 2.36-3.208 10.522 10.522 0 0 0 .16-.295l.008-.018.003-.006.001-.002s.001-.001-.744-.374zm0 0l.745.373a.835.835 0 0 0 0-.746l-.745.373z" fill="#3B4857"/><path fill-rule="evenodd" clip-rule="evenodd" d="M10 8.333a1.667 1.667 0 1 0 0 3.334 1.667 1.667 0 0 0 0-3.334zM6.667 10a3.333 3.333 0 1 1 6.666 0 3.333 3.333 0 0 1-6.666 0z" fill="#3B4857"/></svg>