<svg width="35" height="35" fill="none" xmlns="http://www.w3.org/2000/svg"><path d="M25.004 14.021c0-.177-.003-.352-.011-.525a7.95 7.95 0 0 0 1.93-2.074 7.413 7.413 0 0 1-2.221.607 3.968 3.968 0 0 0 1.7-2.22 7.425 7.425 0 0 1-2.454.946c-.705-.802-1.71-1.313-2.823-1.332-2.135-.035-3.866 1.77-3.866 4.03 0 .322.034.633.1.934-3.215-.207-6.064-1.88-7.97-4.404a4.282 4.282 0 0 0-.523 2.069c0 1.431.682 2.704 1.72 3.455a3.701 3.701 0 0 1-1.752-.536v.052c0 2.002 1.333 3.679 3.102 4.07a3.661 3.661 0 0 1-1.745.059c.491 1.64 1.92 2.838 3.611 2.878-1.323 1.097-2.99 1.753-4.801 1.748-.312 0-.62-.02-.923-.059 1.712 1.174 3.744 1.858 5.928 1.858 7.11.002 10.998-6.187 10.998-11.556z" fill="#212121"/><path d="M35 17.5C35 7.835 27.165 0 17.5 0S0 7.835 0 17.5 7.835 35 17.5 35 35 27.165 35 17.5zm-33.41 0c0-8.787 7.123-15.91 15.91-15.91 8.787 0 15.91 7.123 15.91 15.91 0 8.787-7.123 15.91-15.91 15.91-8.787 0-15.91-7.123-15.91-15.91z" fill="#212121"/></svg>