<svg width="35" height="35" viewBox="0 0 35 35" fill="none" xmlns="http://www.w3.org/2000/svg">
<path d="M35 17.5C35 7.8352 27.1647 0 17.5 0C7.8352 0 0 7.8352 0 17.5C0 27.1647 7.8352 35 17.5 35C27.1647 35 35 27.1647 35 17.5ZM1.5909 17.5C1.5909 8.7134 8.7134 1.5909 17.5 1.5909C26.2866 1.5909 33.4091 8.7134 33.4091 17.5C33.4091 26.2866 26.2866 33.4091 17.5 33.4091C8.7134 33.4091 1.5909 26.2866 1.5909 17.5Z" fill="#212121"/>
<path d="M18.1717 27.6006V17.5H21.5046L22.0312 14.1527H18.1717V12.4743C18.1717 11.6009 18.458 10.7673 19.7117 10.7673H22.2173V7.42639H18.6601C15.6692 7.42639 14.853 9.39589 14.853 12.1259V14.1512H12.8008V17.5H14.853V27.6006H18.1717Z" fill="#212121"/>
</svg>
