<svg width="60" height="60" viewBox="0 0 60 60" fill="none" xmlns="http://www.w3.org/2000/svg">
<path d="M55.9775 14.9411C53.2947 10.3451 49.6557 6.70609 45.0596 4.02346C40.4625 1.34097 35.4443 0 30.0009 0C24.5581 0 19.5383 1.34097 14.9421 4.02346C10.3456 6.70568 6.70663 10.3447 4.02387 14.9411C1.34097 19.5379 0 24.5577 0 30.0001C0 35.4428 1.34138 40.4617 4.02346 45.0587C6.70609 49.6548 10.3451 53.2938 14.9415 55.9767C19.5383 58.659 24.5577 60.0001 30.0003 60.0001C35.443 60.0001 40.463 58.659 45.0594 55.9767C49.6556 53.2947 53.2945 49.6548 55.977 45.0587C58.659 40.4621 59.9999 35.4425 59.9999 30.0001C60 24.5571 58.659 19.5372 55.9775 14.9411ZM49.4528 25.4297L28.2423 46.6404C27.7475 47.1357 27.1489 47.383 26.4454 47.383C25.7684 47.383 25.1826 47.1357 24.6876 46.6404L10.5465 32.5C10.0783 32.0309 9.84364 31.4461 9.84364 30.7423C9.84364 30.0133 10.0775 29.4139 10.5465 28.9451L14.1012 25.4297C14.5966 24.935 15.1818 24.6876 15.8593 24.6876C16.5369 24.6876 17.1229 24.9351 17.6175 25.4297L26.4458 34.2578L42.3832 18.3594C42.8781 17.8646 43.4638 17.6171 44.1409 17.6171C44.8175 17.6171 45.4042 17.8646 45.8987 18.3594L49.4534 21.8753C49.923 22.3438 50.1566 22.9426 50.1566 23.6716C50.1566 24.375 49.923 24.961 49.4528 25.4297Z" fill="#1A1919"/>
</svg>
