<svg width="7" height="10" viewBox="0 0 7 10" fill="none" xmlns="http://www.w3.org/2000/svg">
<path d="M6.83463 2.4889C6.79846 2.3555 6.72501 2.21335 6.67067 2.08889C6.02048 0.551111 4.59982 0 3.45272 0C1.9171 0 0.225803 1.01336 0 3.10214V3.52889C0 3.5467 0.00623686 3.70668 0.015096 3.7867C0.141676 4.78216 0.939829 5.84012 1.53592 6.83558C2.17723 7.90211 2.84268 8.95128 3.50197 10C3.9085 9.31562 4.31357 8.62225 4.71084 7.95558C4.81911 7.75994 4.94479 7.56441 5.05318 7.37767C5.12542 7.25333 5.26344 7.12899 5.32649 7.0133C5.96778 5.85781 7 4.69339 7 3.54667V3.07559C7.00002 2.95127 6.84344 2.51571 6.83463 2.4889ZM3.48083 4.63118C3.02944 4.63118 2.53535 4.40905 2.29148 3.79561C2.25514 3.69796 2.25807 3.50227 2.25807 3.48434V3.20878C2.25807 2.42676 2.93279 2.07113 3.51976 2.07113C4.24239 2.07113 4.80127 2.6401 4.80127 3.35126C4.80127 4.0624 4.20345 4.63118 3.48083 4.63118Z" fill="white"/>
</svg>
