<svg width="12" height="13" viewBox="0 0 12 13" fill="none" xmlns="http://www.w3.org/2000/svg">
<path d="M11.9943 10.2595C12.0197 10.4707 11.9603 10.6543 11.8164 10.8104L10.1269 12.6281C10.0506 12.7199 9.95114 12.798 9.82834 12.8622C9.70554 12.9265 9.58488 12.9678 9.46635 12.9861C9.45788 12.9861 9.43242 12.9885 9.39005 12.9931C9.34777 12.9977 9.29272 13 9.22497 13C9.06401 13 8.80357 12.9702 8.44363 12.9105C8.0837 12.8508 7.64333 12.7039 7.12253 12.4698C6.6016 12.2357 6.0109 11.8845 5.35034 11.4163C4.68977 10.9481 3.98682 10.3054 3.24155 9.48833C2.64871 8.85486 2.15751 8.24893 1.76793 7.67056C1.37836 7.09215 1.065 6.55737 0.82787 6.0662C0.590716 5.57503 0.412866 5.12976 0.294299 4.73039C0.175733 4.33103 0.0952767 3.98675 0.0529315 3.69756C0.0105863 3.40836 -0.00635178 3.18114 0.00211726 3.01588C0.0105863 2.85063 0.0148208 2.75882 0.0148208 2.74046C0.0317589 2.61193 0.0698696 2.4811 0.129153 2.34798C0.188436 2.21486 0.260423 2.10699 0.345113 2.02436L2.03469 0.192796C2.15325 0.0642654 2.28876 0 2.4412 0C2.5513 0 2.64869 0.0344279 2.73338 0.103284C2.81807 0.17214 2.89006 0.257062 2.94934 0.35805L4.30862 3.1536C4.38485 3.30049 4.40602 3.46115 4.37214 3.63559C4.33827 3.81002 4.26628 3.95691 4.15618 4.07626L3.53371 4.75105C3.51677 4.76941 3.50195 4.79925 3.48924 4.84056C3.47654 4.88188 3.47019 4.9163 3.47019 4.94385C3.50407 5.13664 3.58029 5.35698 3.69885 5.60486C3.80048 5.8252 3.95716 6.09374 4.16889 6.41048C4.38061 6.72721 4.68126 7.09213 5.07084 7.50526C5.45194 7.92762 5.79071 8.25579 6.08712 8.48994C6.38348 8.72396 6.63128 8.89617 6.8303 9.00634C7.02933 9.11651 7.18177 9.18307 7.28761 9.20595L7.44636 9.24041C7.4633 9.24041 7.49089 9.2335 7.52896 9.21975C7.56707 9.20595 7.59459 9.18991 7.61155 9.17153L8.33563 8.3728C8.48816 8.22593 8.66593 8.15248 8.8692 8.15248C9.01322 8.15248 9.12749 8.18 9.21218 8.23511H9.22486L11.6766 9.80502C11.8545 9.92446 11.9604 10.0759 11.9943 10.2595Z" fill="#212121"/>
</svg>
