<svg width="9" height="10" viewBox="0 0 9 10" fill="none" xmlns="http://www.w3.org/2000/svg">
<path d="M8.99571 7.89194C9.01478 8.05438 8.97026 8.19562 8.86232 8.31566L7.59514 9.71391C7.53798 9.78454 7.46336 9.84462 7.37126 9.894C7.27916 9.94345 7.18866 9.97523 7.09977 9.98934C7.09341 9.98934 7.07431 9.99115 7.04254 9.99469C7.01082 9.9982 6.96954 10 6.91872 10C6.79801 10 6.60268 9.97705 6.33273 9.93113C6.06278 9.88521 5.7325 9.77219 5.34189 9.59214C4.9512 9.41206 4.50818 9.1419 4.01275 8.78176C3.51733 8.42165 2.99012 7.92726 2.43116 7.29872C1.98653 6.81143 1.61813 6.34533 1.32595 5.90043C1.03377 5.4555 0.798752 5.04413 0.620902 4.66631C0.443037 4.28848 0.309649 3.94597 0.220724 3.63876C0.131799 3.33156 0.0714575 3.06673 0.0396986 2.84427C0.00793973 2.62182 -0.00476384 2.44703 0.00158795 2.31991C0.00793973 2.19279 0.0111156 2.12217 0.0111156 2.10805C0.0238192 2.00918 0.0524022 1.90854 0.0968647 1.80614C0.141327 1.70374 0.195317 1.62076 0.258835 1.5572L1.52602 0.148305C1.61494 0.0494349 1.71657 0 1.8309 0C1.91347 0 1.98652 0.026483 2.05004 0.079449C2.11356 0.132415 2.16755 0.19774 2.21201 0.275423L3.23147 2.42584C3.28863 2.53884 3.30451 2.66242 3.27911 2.79661C3.2537 2.93079 3.19971 3.04378 3.11714 3.13559L2.65028 3.65465C2.63758 3.66878 2.62646 3.69173 2.61693 3.72351C2.60741 3.75529 2.60264 3.78177 2.60264 3.80296C2.62805 3.95126 2.68522 4.12076 2.77414 4.31143C2.85036 4.48092 2.96787 4.68749 3.12666 4.93114C3.28546 5.17478 3.51095 5.45548 3.80313 5.77328C4.08896 6.09817 4.34303 6.35061 4.56534 6.53073C4.78761 6.71074 4.97346 6.84321 5.12273 6.92795C5.27199 7.0127 5.38633 7.0639 5.46571 7.0815L5.58477 7.108C5.59748 7.108 5.61817 7.10269 5.64672 7.09211C5.6753 7.0815 5.69594 7.06916 5.70866 7.05502L6.25172 6.44062C6.36612 6.32764 6.49944 6.27114 6.6519 6.27114C6.75991 6.27114 6.84562 6.29231 6.90913 6.3347H6.91865L8.75747 7.54233C8.89091 7.6342 8.97029 7.75069 8.99571 7.89194Z" fill="white"/>
</svg>
