<svg width="9" height="13" viewBox="0 0 9 13" fill="none" xmlns="http://www.w3.org/2000/svg">
<path d="M8.78738 3.23558C8.74088 3.06215 8.64644 2.87735 8.57658 2.71556C7.74062 0.716444 5.91406 0 4.43921 0C2.46484 0 0.290318 1.31737 0 4.03278V4.58755C0 4.6107 0.00801882 4.81868 0.0194092 4.92271C0.182155 6.21681 1.20835 7.59215 1.97476 8.88625C2.7993 10.2727 3.65488 11.6367 4.50254 13C5.02522 12.1103 5.54602 11.2089 6.05679 10.3423C6.196 10.0879 6.35759 9.83373 6.49694 9.59097C6.58983 9.42932 6.76728 9.26768 6.84834 9.11729C7.67285 7.61515 9 6.10141 9 4.61067V3.99826C9.00003 3.83665 8.79871 3.27042 8.78738 3.23558ZM4.47535 6.02053C3.89499 6.02053 3.25974 5.73177 2.94619 4.93429C2.89947 4.80735 2.90324 4.55295 2.90324 4.52964V4.17142C2.90324 3.15479 3.77073 2.69247 4.52541 2.69247C5.4545 2.69247 6.17306 3.43213 6.17306 4.35664C6.17306 5.28112 5.40444 6.02053 4.47535 6.02053Z" fill="#212121"/>
</svg>
