<?xml version="1.0" encoding="utf-8"?>
<!-- Generator: Adobe Illustrator 23.0.3, SVG Export Plug-In . SVG Version: 6.00 Build 0)  -->
<svg version="1.1" id="Layer_1" xmlns="http://www.w3.org/2000/svg" xmlns:xlink="http://www.w3.org/1999/xlink" x="0px" y="0px"
	 viewBox="0 0 800 800" style="enable-background:new 0 0 800 800;" xml:space="preserve">
<style type="text/css">
	.st0{display:none;}
	.st1{display:inline;}
	.st2{fill:#243642;}
</style>
<g id="NewGroupe0_1_">
	<g id="NewGroup1-0">
		<g>
			<path d="M436.93,401.01c-55.09,0-99.91-44.82-99.91-99.91c0-55.09,44.82-99.91,99.91-99.91s99.91,44.82,99.91,99.91
				C536.83,356.19,492.02,401.01,436.93,401.01L436.93,401.01z M340.77,410.08l-12.86-12.86l19.39-19.35
				c3.95,4.6,8.24,8.9,12.85,12.85L340.77,410.08L340.77,410.08z M270.67,454.33l44.38-44.28l12.87,12.87l-44.38,44.34
				L270.67,454.33L270.67,454.33z M436.93,183.03c-65.11,0-118.07,52.97-118.07,118.07c0,22.7,6.45,43.92,17.59,61.94L245,454.29
				l38.51,38.68l91.47-91.4c18.02,11.15,39.24,17.6,61.95,17.6C502.03,419.17,555,366.2,555,301.1
				C555,235.99,502.03,183.03,436.93,183.03L436.93,183.03z"/>
			<path d="M464.17,255.69h18.17v90.83h-18.17V255.69L464.17,255.69z M427.84,346.51v-54.5h18.17v54.5H427.84L427.84,346.51z
				 M391.51,346.51v-18.17h18.17v18.17H391.51L391.51,346.51z M446.01,273.85h-36.33v36.33h-36.33v54.5c40.79,0,88.11,0,127.15,0
				V237.52h-54.49V273.85L446.01,273.85z"/>
		</g>
		<g id="text1o" class="st0">
			<g class="st1">
				<path class="st2" d="M328.3,720.68l-1.64,4.98h-3.68l7.44-21.33h3.38l7.35,21.33h-3.68l-1.63-4.98H328.3z M334.89,717.71
					l-2.74-8.41h-0.09l-2.78,8.41H334.89z"/>
				<path class="st2" d="M356.89,725.66l-9.45-15.37l-0.09,0.03v15.34h-3.56v-21.33h3.56l9.45,15.37l0.09-0.03v-15.34h3.56v21.33
					H356.89z"/>
				<path class="st2" d="M368.74,720.68l-1.64,4.98h-3.68l7.44-21.33h3.38l7.35,21.33h-3.68l-1.63-4.98H368.74z M375.33,717.71
					l-2.74-8.41h-0.09l-2.78,8.41H375.33z"/>
				<path class="st2" d="M397.79,722.82v2.84h-13.55v-21.33h3.56v18.49H397.79z"/>
				<path class="st2" d="M409.11,704.34h3.97l-7.4,13.87v7.46h-3.54v-7.68l-7.28-13.65h3.97l5.14,10.37L409.11,704.34z"/>
				<path class="st2" d="M424.32,707.19v18.47h-3.56v-18.47h-6.49v-2.86h16.64v2.86H424.32z"/>
				<path class="st2" d="M433.91,725.66v-21.33h3.56v21.33H433.91z"/>
				<path class="st2" d="M457.86,718.78c0.04,2.15-0.66,3.88-2.09,5.21c-1.44,1.32-3.37,1.98-5.82,1.98c-2.48,0-4.49-0.84-6.04-2.51
					c-1.54-1.67-2.31-3.82-2.31-6.42v-4.06c0-2.6,0.76-4.74,2.29-6.42c1.52-1.68,3.51-2.53,5.96-2.53c2.51,0,4.48,0.64,5.93,1.92
					c1.44,1.28,2.14,3.03,2.1,5.26l-0.03,0.09h-3.44c0-1.43-0.39-2.52-1.16-3.27c-0.77-0.76-1.9-1.14-3.4-1.14
					c-1.45,0-2.59,0.57-3.44,1.72c-0.84,1.15-1.27,2.6-1.27,4.34v4.09c0,1.77,0.43,3.23,1.29,4.37c0.86,1.15,2.03,1.72,3.52,1.72
					c1.46,0,2.56-0.38,3.32-1.14c0.76-0.76,1.14-1.86,1.14-3.3h3.43L457.86,718.78z"/>
				<path class="st2" d="M471.58,718c-0.63-0.57-1.75-1.07-3.35-1.52c-2.29-0.63-4.06-1.47-5.31-2.5c-1.25-1.03-1.87-2.38-1.87-4.04
					c0-1.72,0.68-3.13,2.05-4.25c1.37-1.11,3.13-1.67,5.27-1.67c2.3,0,4.15,0.62,5.53,1.85c1.38,1.24,2.05,2.76,2,4.58l-0.03,0.09
					h-3.43c0-1.12-0.37-2.02-1.12-2.68c-0.75-0.66-1.74-1-2.98-1c-1.2,0-2.13,0.28-2.78,0.85c-0.65,0.57-0.97,1.3-0.97,2.2
					c0,0.82,0.36,1.5,1.07,2.03c0.71,0.53,1.89,1.04,3.55,1.52c2.24,0.63,3.94,1.48,5.11,2.56c1.17,1.08,1.76,2.46,1.76,4.14
					c0,1.77-0.69,3.18-2.08,4.23c-1.39,1.05-3.21,1.58-5.46,1.58c-2.17,0-4.06-0.58-5.67-1.73c-1.61-1.15-2.39-2.78-2.34-4.88
					l0.03-0.09h3.43c0,1.28,0.44,2.24,1.33,2.89c0.88,0.65,1.96,0.97,3.23,0.97c1.26,0,2.24-0.27,2.94-0.8
					c0.7-0.53,1.05-1.25,1.05-2.16C472.52,719.3,472.21,718.57,471.58,718z"/>
			</g>
		</g>
	</g>
	<g id="text_1_" class="st0">
		<g class="st1">
			<path class="st2" d="M256.59,646.37l-3.28,9.96h-7.35l14.88-42.66h6.77l14.71,42.66h-7.35l-3.25-9.96H256.59z M269.78,640.42
				l-5.48-16.82h-0.18l-5.57,16.82H269.78z"/>
			<path class="st2" d="M313.78,656.33l-18.9-30.73l-0.18,0.06v30.67h-7.12v-42.66h7.12l18.9,30.73l0.18-0.06v-30.67h7.12v42.66
				H313.78z"/>
			<path class="st2" d="M337.48,646.37l-3.28,9.96h-7.35l14.88-42.66h6.77l14.71,42.66h-7.35l-3.25-9.96H337.48z M350.66,640.42
				l-5.48-16.82h-0.18l-5.57,16.82H350.66z"/>
			<path class="st2" d="M395.58,650.64v5.68h-27.1v-42.66h7.12v36.97H395.58z"/>
			<path class="st2" d="M418.22,613.67h7.94l-14.79,27.74v14.91h-7.09v-15.35l-14.56-27.3h7.94l10.28,20.74L418.22,613.67z"/>
			<path class="st2" d="M448.63,619.38v36.94h-7.12v-36.94h-12.98v-5.71h33.28v5.71H448.63z"/>
			<path class="st2" d="M467.82,656.33v-42.66h7.12v42.66H467.82z"/>
			<path class="st2" d="M515.72,642.56c0.08,4.3-1.32,7.77-4.19,10.41c-2.87,2.65-6.75,3.97-11.63,3.97
				c-4.96,0-8.98-1.67-12.07-5.02c-3.09-3.35-4.63-7.63-4.63-12.85v-8.12c0-5.2,1.52-9.48,4.57-12.85
				c3.05-3.37,7.02-5.05,11.92-5.05c5.02,0,8.97,1.28,11.85,3.84c2.88,2.56,4.28,6.06,4.2,10.52l-0.06,0.18h-6.88
				c0-2.85-0.77-5.03-2.31-6.55c-1.54-1.51-3.81-2.27-6.8-2.27c-2.89,0-5.18,1.15-6.87,3.44c-1.69,2.29-2.53,5.19-2.53,8.69v8.17
				c0,3.54,0.86,6.45,2.58,8.75c1.72,2.29,4.06,3.44,7.03,3.44c2.91,0,5.12-0.76,6.64-2.29c1.51-1.52,2.27-3.72,2.27-6.59h6.86
				L515.72,642.56z"/>
			<path class="st2" d="M543.16,641.01c-1.26-1.13-3.49-2.15-6.69-3.05c-4.59-1.27-8.13-2.93-10.62-5
				c-2.49-2.06-3.74-4.75-3.74-8.07c0-3.44,1.37-6.27,4.1-8.5c2.73-2.23,6.25-3.34,10.55-3.34c4.61,0,8.3,1.24,11.06,3.71
				c2.76,2.47,4.1,5.52,4,9.16l-0.06,0.18h-6.86c0-2.25-0.75-4.03-2.24-5.36c-1.49-1.33-3.48-1.99-5.96-1.99
				c-2.4,0-4.25,0.57-5.55,1.7c-1.3,1.13-1.95,2.6-1.95,4.39c0,1.64,0.71,2.99,2.14,4.06s3.79,2.08,7.09,3.03
				c4.47,1.25,7.88,2.95,10.22,5.11c2.34,2.16,3.52,4.92,3.52,8.28c0,3.54-1.39,6.36-4.16,8.47c-2.77,2.11-6.42,3.16-10.93,3.16
				c-4.34,0-8.12-1.15-11.34-3.46c-3.22-2.3-4.79-5.56-4.69-9.76l0.06-0.18h6.86c0,2.56,0.88,4.49,2.65,5.79
				c1.77,1.3,3.92,1.95,6.46,1.95c2.52,0,4.48-0.53,5.87-1.6c1.4-1.06,2.09-2.5,2.09-4.32
				C545.05,643.59,544.42,642.14,543.16,641.01z"/>
		</g>
	</g>
</g>
</svg>
