<?xml version="1.0" encoding="utf-8"?>
<!-- Generator: Adobe Illustrator 23.0.3, SVG Export Plug-In . SVG Version: 6.00 Build 0)  -->
<svg version="1.1" id="Слой_1" xmlns="http://www.w3.org/2000/svg" xmlns:xlink="http://www.w3.org/1999/xlink" x="0px" y="0px"
	 viewBox="0 0 600 600" style="enable-background:new 0 0 600 600;" xml:space="preserve">
<style type="text/css">
	.st0{fill:#1D1D1B;}
</style>
<g>
	<g>
		<path class="st0" d="M275.75,369.26c-5.4-7.34-12.27-13.17-19.97-16.56c1.52-0.86,2.94-1.86,4.26-2.99
			c5.62-4.83,9.19-11.98,9.19-19.97c0-14.56-11.8-26.36-26.36-26.36c-14.56,0-26.36,11.8-26.36,26.36c0,8.43,3.97,15.92,10.14,20.75
			c1.37,1.07,2.84,2.01,4.41,2.79c-17.35,8.37-30.33,29.15-30.63,51.2c-0.02,1.58,0.64,3.12,1.8,4.19
			c17.67,16.33,42.58,20.43,63.88,12.3c-2.23-2.39-3.52-5.52-3.48-8.8C262.85,396.62,267.78,381.65,275.75,369.26z"/>
		<path class="st0" d="M413.04,352.7c1.52-0.86,2.94-1.86,4.26-2.99c5.62-4.83,9.19-11.98,9.19-19.97
			c0-14.56-11.8-26.36-26.36-26.36c-14.56,0-26.36,11.8-26.36,26.36c0,8.43,3.97,15.92,10.14,20.75c1.37,1.07,2.84,2.01,4.41,2.79
			c-7.17,3.46-13.57,9.07-18.66,15.99c7.98,12.38,12.9,27.35,13.12,42.89c0.04,3.29-1.25,6.42-3.48,8.81
			c21.3,8.13,46.21,4.04,63.88-12.3c1.16-1.07,1.83-2.61,1.8-4.19C444.67,381.88,431.03,360.64,413.04,352.7z"/>
		<path class="st0" d="M338.35,348.2c1.95-1.01,3.79-2.2,5.49-3.56c7.5-6.02,12.31-15.24,12.31-25.6
			c0-18.13-14.69-32.82-32.82-32.82c-18.13,0-32.82,14.69-32.82,32.82c0,10.12,4.59,19.17,11.8,25.19c1.67,1.4,3.48,2.63,5.4,3.68
			c-22.2,10.03-38.96,36.36-39.35,64.32c-0.03,1.97,0.8,3.88,2.25,5.22c29.38,27.15,74.82,27.15,104.2,0
			c1.44-1.34,2.27-3.25,2.25-5.22C376.67,384.54,360.23,358.44,338.35,348.2z"/>
	</g>
	<g>
		<path class="st0" d="M455.26,93.39H156.24c-1.93,0-3.49,1.56-3.49,3.49v22.5c0,1.93,1.56,3.49,3.49,3.49h9.02
			c1.93,0,3.49-1.56,3.49-3.49v-6.5c0-1.93,1.56-3.49,3.49-3.49h267.02c1.93,0,3.49,1.56,3.49,3.49V259.9
			c0,1.93-1.56,3.49-3.49,3.49H203.92c-1.93,0-3.49,1.56-3.49,3.49v9.02c0,1.93,1.56,3.49,3.49,3.49h251.34
			c1.93,0,3.49-1.56,3.49-3.49V96.88C458.75,94.95,457.19,93.39,455.26,93.39z"/>
		<g>
			
				<ellipse transform="matrix(0.9732 -0.2298 0.2298 0.9732 -34.7125 41.8726)" class="st0" cx="162.46" cy="170" rx="31.7" ry="31.7"/>
			<path class="st0" d="M255.69,209.09h-58.08h-27.5h-0.79H154.8h-27.5c-8.2,0-14.85,6.65-14.85,14.85v80.64
				c0,9.74,7.89,17.63,17.63,17.63h9.86v16.87h0.01v55.15c0,8.2,6.65,14.85,14.85,14.85h15.3c8.2,0,14.85-6.65,14.85-14.85v-50.78
				v-4.37V236.52h59.41h11.33c7.57,0,13.71-6.14,13.71-13.71l0,0C269.41,215.23,263.27,209.09,255.69,209.09z"/>
		</g>
	</g>
	<g>
		<path class="st0" d="M277,210.09c-5.03,0-9.75-1.95-13.3-5.5c-7.33-7.33-7.33-19.26,0-26.59c3.54-3.55,8.27-5.5,13.29-5.5
			c2.94,0,5.81,0.68,8.4,1.97l31.96-31.96c-3.58-7.14-2.26-15.93,3.52-21.71c3.55-3.55,8.27-5.5,13.3-5.5
			c2.45,0,4.83,0.46,7.08,1.38c2.34,0.95,4.44,2.34,6.23,4.13c5.77,5.77,7.1,14.55,3.53,21.7l17.86,17.86
			c2.59-1.29,5.45-1.97,8.4-1.97c2.94,0,5.8,0.67,8.39,1.97l14.55-14.55c-3.57-7.14-2.24-15.92,3.53-21.69
			c3.55-3.55,8.27-5.5,13.3-5.5c5.03,0,9.75,1.95,13.29,5.5c3.55,3.55,5.5,8.27,5.5,13.3c0,5.03-1.95,9.75-5.5,13.3
			c-3.54,3.54-8.27,5.5-13.29,5.5c0,0,0,0,0,0c-2.94,0-5.81-0.68-8.4-1.97l-14.54,14.54c3.6,7.15,2.28,15.94-3.51,21.73
			c-3.55,3.55-8.27,5.5-13.3,5.5c-5.03,0-9.75-1.95-13.3-5.5c-0.45-0.45-0.88-0.93-1.29-1.43c-4.7-5.73-5.51-13.76-2.27-20.29
			l-17.87-17.87c-0.11,0.06-0.23,0.11-0.35,0.17c-2.47,1.16-5.24,1.78-8.01,1.78c-2.96,0-5.83-0.67-8.42-1.95l-31.97,31.97
			c3.57,7.14,2.24,15.92-3.53,21.69C286.75,208.14,282.03,210.09,277,210.09z M277,184.42c-1.84,0-3.56,0.72-4.86,2.01
			c-2.68,2.68-2.68,7.04,0,9.73c1.3,1.3,3.03,2.01,4.86,2.01c1.84,0,3.56-0.72,4.86-2.01c1.3-1.3,2.02-3.03,2.02-4.86
			s-0.72-3.56-2.01-4.86C280.57,185.13,278.84,184.42,277,184.42z M377.3,170.35c-1.84,0-3.56,0.72-4.86,2.01
			c-2.5,2.5-2.71,6.46-0.48,9.2c0.13,0.16,0.28,0.33,0.44,0.49c1.3,1.3,3.03,2.02,4.87,2.02c1.84,0,3.56-0.72,4.86-2.01
			c2.5-2.5,2.71-6.46,0.48-9.2c-0.13-0.16-0.28-0.33-0.45-0.49C380.86,171.06,379.14,170.35,377.3,170.35z M417.04,130.54
			c-1.84,0-3.56,0.72-4.86,2.01c-1.3,1.3-2.01,3.03-2.01,4.86c0,1.84,0.72,3.56,2.01,4.86c1.3,1.3,3.03,2.01,4.86,2.01
			c1.84,0,3.56-0.72,4.86-2.01c1.3-1.3,2.01-3.03,2.01-4.86c0-1.84-0.72-3.56-2.01-4.86C420.6,131.26,418.87,130.54,417.04,130.54z
			 M334.19,127.23c-1.84,0-3.56,0.71-4.86,2.01c-1.3,1.3-2.01,3.03-2.01,4.86c0,1.84,0.72,3.56,2.01,4.86
			c0.66,0.66,1.42,1.16,2.27,1.51c0.82,0.33,1.68,0.5,2.57,0.5c1.84,0,3.56-0.72,4.86-2.01c2.68-2.68,2.68-7.04,0-9.73
			c-0.66-0.66-1.42-1.16-2.27-1.51C335.95,127.4,335.08,127.23,334.19,127.23z"/>
	</g>
</g>
</svg>
