<?xml version="1.0" encoding="utf-8"?>
<!-- Generator: Adobe Illustrator 23.0.3, SVG Export Plug-In . SVG Version: 6.00 Build 0)  -->
<svg version="1.1" id="Layer_1" xmlns="http://www.w3.org/2000/svg" xmlns:xlink="http://www.w3.org/1999/xlink" x="0px" y="0px"
	 viewBox="0 0 1000 1000" style="enable-background:new 0 0 1000 1000;" xml:space="preserve">
<style type="text/css">
	.st0{display:none;}
	.st1{display:inline;}
	.st2{clip-path:url(#SVGID_2_);fill:#1D1D1B;stroke:#1D1D1B;stroke-miterlimit:10;}
	.st3{display:inline;fill:#1D1D1B;stroke:#1D1D1B;stroke-miterlimit:10;}
	.st4{fill:#1D1D1B;stroke:#1D1D1B;stroke-miterlimit:10;}
	.st5{fill:#1D1D1B;stroke:#1D1D1B;}
</style>
<g id="NewGroupe0_9_">
	<g id="NewGroup9-0">
		<g class="st0">
			<g class="st1">
				<defs>
					<rect id="SVGID_1_" x="0.12" y="0.04" width="999.88" height="999.96"/>
				</defs>
				<use xlink:href="#SVGID_1_"  style="overflow:visible;fill:#1D1D1B;"/>
				<clipPath id="SVGID_2_">
					<use xlink:href="#SVGID_1_"  style="overflow:visible;"/>
				</clipPath>
				<polygon class="st2" points="1000,1000 0,1000 0,0 1000,0 1000,1000 				"/>
				<use xlink:href="#SVGID_1_"  style="overflow:visible;fill:none;stroke:#1D1D1B;stroke-miterlimit:10;"/>
			</g>
			<polygon class="st3" points="451.6,885.2 455.78,885.2 455.78,909 451.6,909 451.6,885.2 			"/>
			<path class="st3" d="M461.08,897.17v-0.07c0-6.77,5.07-12.31,12.27-12.31c4.39,0,7.04,1.53,9.32,3.71l-2.68,3.09
				c-1.9-1.77-3.94-2.96-6.66-2.96c-4.55,0-7.85,3.74-7.85,8.4v0.07c0,4.66,3.3,8.46,7.85,8.46c2.92,0,4.79-1.19,6.83-3.09
				l2.69,2.72c-2.48,2.58-5.2,4.22-9.65,4.22C466.25,909.41,461.08,904,461.08,897.17L461.08,897.17z"/>
			<path class="st3" d="M505.99,897.17v-0.07c0-4.62-3.37-8.47-8.09-8.47c-4.73,0-8.02,3.77-8.02,8.4v0.07
				c0,4.62,3.37,8.46,8.09,8.46C502.7,905.57,505.99,901.79,505.99,897.17L505.99,897.17z M485.49,897.17v-0.07
				c0-6.7,5.17-12.31,12.48-12.31c7.31,0,12.41,5.54,12.41,12.24v0.07c0,6.7-5.17,12.31-12.48,12.31
				C490.59,909.41,485.49,903.87,485.49,897.17L485.49,897.17z"/>
			<polygon class="st3" points="515.45,885.2 519.32,885.2 532.07,901.66 532.07,885.2 536.18,885.2 536.18,909 532.68,909 
				519.56,892.07 519.56,909 515.45,909 515.45,885.2 			"/>
		</g>
		<g>
			<path class="st4" d="M264.41,359.96c0-2.7,1.37-5.21,3.63-6.68l151.11-97.69l0,0c1.32-0.85,2.81-1.27,4.31-1.27
				c1.51,0,3,0.42,4.32,1.27l151.11,97.68c2.27,1.46,3.63,3.98,3.63,6.68v261.82h-23.97V500.73c0,0,0-0.01,0-0.01V463.1c0,0,0,0,0,0
				c0,0,0,0,0-0.01l0-37.61c0,0,0-0.01,0-0.01c0,0,0-0.01,0-0.01v-35.33c0-1.9-0.77-3.75-2.11-5.09c-1.34-1.34-3.2-2.11-5.09-2.11
				H295.58c-1.9,0-3.75,0.77-5.09,2.11c-1.34,1.34-2.11,3.2-2.11,5.09v110.58v121.06h-23.97V359.96L264.41,359.96z M302.78,418.27
				v-20.93h241.36v20.93H302.78L302.78,418.27z M302.78,470.3h241.36v23.21H302.78V470.3L302.78,470.3z M544.14,455.9H302.78v-23.21
				h241.36L544.14,455.9L544.14,455.9z M257.2,636.19h38.38c1.9,0,3.75-0.77,5.09-2.11c1.34-1.34,2.11-3.2,2.11-5.09V507.92h241.36
				v121.06c0,1.9,0.77,3.75,2.11,5.09c1.34,1.34,3.2,2.11,5.09,2.11h38.38c1.9,0,3.75-0.77,5.09-2.11c1.34-1.34,2.11-3.2,2.11-5.09
				V359.96c0-7.59-3.85-14.66-10.22-18.78L435.6,243.5c-3.69-2.39-7.92-3.58-12.14-3.58c-4.22,0-8.45,1.2-12.14,3.58l0,0
				l-151.11,97.68c-6.37,4.12-10.22,11.19-10.22,18.78v269.02c0,1.9,0.77,3.75,2.11,5.09C253.45,635.42,255.31,636.19,257.2,636.19
				L257.2,636.19z"/>
			<path class="st4" d="M665.53,520.53h10.99v11.17c0,3.98,3.23,7.2,7.2,7.2c3.98,0,7.2-3.23,7.2-7.2v-11.17h10.99v30.99h-36.38
				V520.53L665.53,520.53z M658.33,565.92h50.79c1.9,0,3.75-0.77,5.09-2.11c1.34-1.34,2.11-3.2,2.11-5.09v-45.4
				c0-1.9-0.77-3.75-2.11-5.09c-1.34-1.34-3.2-2.11-5.09-2.11h-50.79c-1.9,0-3.75,0.77-5.09,2.11c-1.34,1.34-2.11,3.2-2.11,5.09
				v45.4c0,1.9,0.77,3.75,2.11,5.09C654.58,565.15,656.43,565.92,658.33,565.92L658.33,565.92z"/>
			<path class="st4" d="M326.42,589.08h10.99v11.17c0,3.98,3.23,7.2,7.2,7.2c3.98,0,7.2-3.23,7.2-7.2v-11.17h10.99v30.99h-36.38
				V589.08L326.42,589.08z M319.21,574.67c-1.9,0-3.75,0.77-5.09,2.11c-1.34,1.34-2.11,3.2-2.11,5.09v45.4
				c0,1.9,0.77,3.75,2.11,5.09c1.34,1.34,3.2,2.11,5.09,2.11H370c1.9,0,3.75-0.77,5.09-2.11c1.34-1.34,2.11-3.2,2.11-5.09v-45.4
				c0-1.9-0.77-3.75-2.11-5.09c-1.34-1.34-3.2-2.11-5.09-2.11H319.21L319.21,574.67z"/>
			<path class="st4" d="M405.66,589.08h10.99v11.17c0,3.98,3.23,7.2,7.2,7.2c3.98,0,7.2-3.23,7.2-7.2v-11.17h10.99v30.99h-36.38
				V589.08L405.66,589.08z M398.46,574.67c-1.9,0-3.75,0.77-5.09,2.11c-1.34,1.34-2.11,3.2-2.11,5.09v45.4
				c0,1.9,0.77,3.75,2.11,5.09c1.34,1.34,3.2,2.11,5.09,2.11h50.79c1.9,0,3.75-0.77,5.09-2.11c1.34-1.34,2.11-3.2,2.11-5.09v-45.4
				c0-1.9-0.77-3.75-2.11-5.09c-1.34-1.34-3.2-2.11-5.09-2.11H398.46L398.46,574.67z"/>
			<path class="st4" d="M484.9,589.08h10.99v11.17c0,3.98,3.23,7.2,7.2,7.2c3.98,0,7.2-3.23,7.2-7.2v-11.17h10.99l0,30.99H484.9
				V589.08L484.9,589.08z M477.7,574.67c-1.9,0-3.75,0.77-5.09,2.11c-1.34,1.34-2.11,3.2-2.11,5.09v45.4c0,1.9,0.77,3.75,2.11,5.09
				c1.34,1.34,3.2,2.11,5.09,2.11h50.79c1.9,0,3.75-0.77,5.09-2.11c1.34-1.34,2.11-3.2,2.11-5.09v-45.4c0-1.9-0.77-3.75-2.11-5.09
				c-1.34-1.34-3.2-2.11-5.09-2.11H477.7L477.7,574.67z"/>
			<path class="st4" d="M699.21,592.68h10.99v11.17c0,3.98,3.23,7.2,7.2,7.2c3.98,0,7.2-3.23,7.2-7.2v-11.17h10.99l0,30.99h-36.38
				V592.68L699.21,592.68z M686.92,580.39c-1.34,1.34-2.11,3.2-2.11,5.09v45.4c0,1.9,0.77,3.75,2.11,5.09
				c1.34,1.34,3.2,2.11,5.09,2.11h50.79c1.9,0,3.75-0.77,5.09-2.11c1.34-1.34,2.11-3.2,2.11-5.09v-45.4c0-1.9-0.77-3.75-2.11-5.09
				c-1.34-1.34-3.2-2.11-5.09-2.11h-50.79C690.11,578.28,688.26,579.04,686.92,580.39L686.92,580.39z"/>
			<path class="st4" d="M624.29,592.68h10.99v11.17c0,3.98,3.23,7.2,7.2,7.2c3.98,0,7.2-3.23,7.2-7.2v-11.17h10.98l0,30.99h-36.38
				V592.68L624.29,592.68z M617.09,638.08h50.79c1.9,0,3.75-0.77,5.09-2.11c1.34-1.34,2.11-3.2,2.11-5.09v-45.4
				c0-1.9-0.77-3.75-2.11-5.09c-1.34-1.34-3.2-2.11-5.09-2.11h-50.79c-1.9,0-3.75,0.77-5.09,2.11c-1.34,1.34-2.11,3.2-2.11,5.09
				v45.4c0,1.9,0.77,3.75,2.11,5.09C613.34,637.31,615.19,638.08,617.09,638.08L617.09,638.08z"/>
		</g>
	</g>
	<g id="text_9_" class="st0">
		<g class="st1">
			<path class="st5" d="M370.37,786.98L357.11,831c-0.59,1.65-1.85,2.77-3.43,2.77c-1.65,0-2.9-1.19-3.43-2.71l-9.83-38.01
				L330.45,831c-0.59,1.65-1.85,2.77-3.43,2.77c-1.58,0-2.9-0.99-3.43-2.71l-13.26-44.08c-0.86-2.9,0.26-4.75,2.57-4.75
				c1.45,0,2.84,0.79,3.37,2.57l10.82,37.62l9.97-37.22c0.33-1.32,1.72-2.31,3.3-2.31c1.39,0,2.84,0.79,3.23,2.24l10.1,37.55
				l10.96-38.21c0.46-1.58,1.52-2.24,3.37-2.24C370.44,782.23,371.1,784.48,370.37,786.98z"/>
			<path class="st5" d="M404.56,815.76v14.72c0,1.91-1.45,3.37-3.37,3.37s-3.37-1.45-3.37-3.37v-2.44c-3.04,3.7-7.52,6-12.74,6
				c-9.63,0-16.89-7.85-16.89-18.28c0-10.43,7.85-18.35,18.21-18.35C396.71,797.41,404.5,805.33,404.56,815.76z M398.1,815.76
				c0-7.06-5.02-12.41-11.68-12.41c-6.67,0-11.75,5.35-11.75,12.41c0,7.06,5.08,12.34,11.75,12.34
				C393.08,828.1,398.1,822.82,398.1,815.76z"/>
			<path class="st5" d="M439.67,801.63c-0.46,1.85-1.91,2.38-3.63,1.98c-8.45-1.65-14.85,1.52-14.85,7.59v19.27
				c0,2.11-1.12,3.3-3.3,3.3c-2.11,0-3.3-1.12-3.3-3.3v-29.5c0-2.11,1.19-3.3,3.3-3.3c2.18,0,3.3,1.12,3.3,3.3v1.25
				c2.64-3.04,6.67-4.95,11.09-4.95C437.56,797.28,440.27,799.26,439.67,801.63z"/>
			<path class="st5" d="M473.4,818.07h-25.08c0.99,6.07,5.94,10.3,12.67,10.3c2.71,0,5.87-1.19,7.66-2.51
				c1.32-0.99,3.04-0.99,4.16-0.07c1.52,1.32,1.58,3.1,0.13,4.22c-2.97,2.38-7.92,4.03-11.95,4.03c-11.02,0-18.81-7.59-18.81-18.28
				c0-10.76,7.39-18.35,17.82-18.35c10.29,0,16.43,7.33,16.43,17.75C476.44,816.88,475.18,818.07,473.4,818.07z M448.39,812.79
				h21.98c-0.79-5.68-4.42-9.7-10.36-9.7C453.47,803.09,449.38,807.05,448.39,812.79z"/>
			<path class="st5" d="M518.87,814.24v16.23c0,1.91-1.45,3.37-3.37,3.37c-1.91,0-3.37-1.45-3.37-3.37v-16.23
				c0-7.46-4.49-10.82-10.49-10.82c-5.61,0-9.9,3.63-9.9,8.45v18.61c0,1.98-1.39,3.37-3.37,3.37c-1.98,0-3.37-1.39-3.37-3.37V785.6
				c0-1.98,1.39-3.37,3.37-3.37c1.98,0,3.37,1.39,3.37,3.37v16.17c2.77-2.77,6.73-4.42,11.22-4.42
				C512.01,797.34,518.87,803.28,518.87,814.24z"/>
			<path class="st5" d="M564.61,815.76c0,10.69-7.52,18.28-18.15,18.28c-10.69,0-18.21-7.59-18.21-18.28
				c0-10.76,7.52-18.35,18.21-18.35C557.02,797.41,564.54,805,564.61,815.76z M534.72,815.76c0,7.26,4.88,12.34,11.75,12.34
				c6.86,0,11.68-5.08,11.68-12.34c0-7.26-4.82-12.41-11.68-12.41C539.6,803.35,534.72,808.5,534.72,815.76z"/>
			<path class="st5" d="M607.77,800.97v29.43c0,1.98-1.39,3.37-3.37,3.37c-1.98,0-3.37-1.39-3.37-3.37v-0.73
				c-2.77,2.77-6.73,4.42-11.22,4.42c-9.04,0-15.9-5.94-15.9-16.89v-16.23c0-1.91,1.45-3.37,3.37-3.37c1.91,0,3.37,1.45,3.37,3.37
				v16.23c0,7.46,4.49,10.82,10.49,10.82c5.61,0,9.9-3.63,9.9-8.45v-18.61c0-1.98,1.39-3.37,3.37-3.37
				C606.39,797.61,607.77,798.99,607.77,800.97z"/>
			<path class="st5" d="M645.39,802.62c1.19,1.45,1.12,3.1-0.26,4.16c-1.45,0.99-3.63,0.53-4.95-0.73
				c-2.24-2.11-4.62-2.77-7.99-2.77c-3.89,0-6.93,1.39-6.93,3.89c0,2.44,1.39,3.89,8.51,5.35c9.9,1.98,13.2,5.48,13.2,10.69
				c0,6-4.88,10.82-14.19,10.82c-6.14,0-11.75-2.11-14.65-5.02c-1.32-1.39-1.06-3.43,0.46-4.62c1.72-1.39,3.56-1.06,4.82,0.26
				c1.52,1.65,5.08,3.43,9.11,3.43c5.08,0,7.85-1.85,7.92-4.49c0.07-2.64-2.11-4.55-8.98-5.81c-8.91-1.72-12.67-5.35-12.67-10.43
				c0-6.73,6.8-9.97,13.53-9.97C638.14,797.41,642.75,799.39,645.39,802.62z"/>
			<path class="st5" d="M684.86,818.07h-25.08c0.99,6.07,5.94,10.3,12.67,10.3c2.71,0,5.87-1.19,7.66-2.51
				c1.32-0.99,3.04-0.99,4.16-0.07c1.52,1.32,1.58,3.1,0.13,4.22c-2.97,2.38-7.92,4.03-11.95,4.03c-11.02,0-18.81-7.59-18.81-18.28
				c0-10.76,7.39-18.35,17.82-18.35c10.3,0,16.43,7.33,16.43,17.75C687.9,816.88,686.64,818.07,684.86,818.07z M659.85,812.79h21.98
				c-0.79-5.68-4.42-9.7-10.36-9.7C664.93,803.09,660.84,807.05,659.85,812.79z"/>
		</g>
	</g>
</g>
</svg>
