<?xml version="1.0" encoding="utf-8"?>
<!-- Generator: Adobe Illustrator 23.0.3, SVG Export Plug-In . SVG Version: 6.00 Build 0)  -->
<svg version="1.1" id="Layer_1" xmlns="http://www.w3.org/2000/svg" xmlns:xlink="http://www.w3.org/1999/xlink" x="0px" y="0px"
	 viewBox="0 0 800 800" style="enable-background:new 0 0 800 800;" xml:space="preserve">
<g id="NewGroupe0_25_">
	<g id="NewGroup25-0">
		<g>
			<path d="M416.66,163.63v-5.07c-1.19,0-2.3-0.24-3.32-0.67c-1.53-0.64-2.84-1.73-3.76-3.1c-0.92-1.37-1.45-2.98-1.46-4.77
				c0-1.19,0.24-2.3,0.67-3.32c0.64-1.52,1.73-2.84,3.1-3.76c1.37-0.92,2.98-1.45,4.77-1.45c1.19,0,2.3,0.24,3.32,0.67
				c1.52,0.64,2.84,1.73,3.76,3.1c0.92,1.37,1.45,2.98,1.45,4.77c0,1.19-0.24,2.3-0.67,3.32c-0.64,1.52-1.73,2.84-3.1,3.76
				c-1.37,0.92-2.98,1.45-4.77,1.45V163.63v5.07c2.57,0,5.04-0.52,7.27-1.47c3.36-1.42,6.2-3.78,8.21-6.76
				c2.01-2.98,3.2-6.6,3.19-10.45c0-2.57-0.52-5.04-1.47-7.27c-1.42-3.36-3.78-6.2-6.76-8.21c-2.98-2.01-6.6-3.2-10.45-3.19
				c-2.57,0-5.04,0.52-7.27,1.47c-3.36,1.42-6.2,3.78-8.21,6.76c-2.01,2.98-3.2,6.6-3.19,10.45c0,2.57,0.52,5.04,1.47,7.27
				c1.42,3.36,3.78,6.2,6.76,8.22c2.97,2.01,6.6,3.2,10.45,3.19V163.63L416.66,163.63z M486.56,152.75v-5.07h-9.41
				c-5.56,0-10.92-1.3-15.81-3.68c-4.89-2.39-9.29-5.87-12.88-10.22c-3.72-4.51-8.39-8.2-13.72-10.77
				c-5.33-2.57-11.31-4.01-17.6-4.01c-6.29,0-12.28,1.44-17.61,4.01c-5.33,2.57-10,6.26-13.72,10.77
				c-3.59,4.35-7.99,7.83-12.88,10.22c-4.89,2.39-10.25,3.68-15.8,3.68h-13.51c-3.36,0-6.58,0.68-9.51,1.92
				c-4.39,1.86-8.11,4.95-10.74,8.84c-2.63,3.89-4.18,8.62-4.17,13.66v13.59c0,1.34,0.54,2.64,1.49,3.59
				c0.95,0.94,2.25,1.49,3.59,1.49h181.63c1.34,0,2.64-0.54,3.59-1.49c0.95-0.95,1.49-2.25,1.49-3.59V172.1
				c0-3.36-0.68-6.58-1.92-9.51c-1.86-4.39-4.95-8.11-8.84-10.74c-3.89-2.63-8.62-4.18-13.66-4.17V152.75v5.07
				c1.98,0,3.85,0.4,5.55,1.12c2.55,1.08,4.74,2.9,6.28,5.18c1.54,2.28,2.43,5,2.43,7.98v8.52H329.35v-8.52
				c0-1.98,0.4-3.85,1.12-5.55c1.08-2.55,2.9-4.74,5.18-6.28c2.28-1.54,5-2.43,7.98-2.43h13.51c7.14,0,14.04-1.68,20.26-4.71
				c6.22-3.04,11.76-7.43,16.25-12.88c2.79-3.39,6.31-6.16,10.3-8.09c3.99-1.92,8.45-3,13.2-3c4.74,0,9.2,1.08,13.19,3
				c3.99,1.92,7.5,4.7,10.3,8.09c4.49,5.45,10.04,9.84,16.26,12.88c6.22,3.04,13.12,4.71,20.26,4.71h9.41V152.75L486.56,152.75z"/>
			<path d="M308.82,168.84v-5.07h-47.91c-3.02,0-5.92,0.61-8.55,1.73c-3.95,1.67-7.29,4.45-9.66,7.95
				c-2.37,3.5-3.76,7.75-3.75,12.29v391.3c0,3.02,0.61,5.92,1.73,8.55c1.67,3.95,4.45,7.29,7.95,9.66c3.5,2.37,7.75,3.76,12.29,3.76
				h302.18c3.02,0,5.92-0.61,8.55-1.73c3.95-1.67,7.29-4.45,9.66-7.95c2.37-3.5,3.76-7.75,3.75-12.29v-391.3
				c0-3.02-0.61-5.92-1.73-8.55c-1.67-3.95-4.45-7.29-7.95-9.66c-3.5-2.37-7.75-3.76-12.29-3.76h-41.72c-1.43,0-2.79,0.6-3.75,1.66
				c-0.96,1.06-1.43,2.46-1.3,3.89c0.09,0.94,0.14,1.87,0.14,2.79v24.14H313.73V172.1c0-0.92,0.05-1.85,0.14-2.79
				c0.13-1.42-0.34-2.83-1.3-3.89c-0.96-1.06-2.32-1.66-3.75-1.66V168.84l-5.05-0.47c-0.11,1.21-0.18,2.46-0.18,3.73v29.21
				c0,1.34,0.54,2.64,1.49,3.59c0.95,0.94,2.25,1.49,3.59,1.49h212.87c1.34,0,2.64-0.54,3.59-1.49c0.95-0.95,1.49-2.25,1.49-3.59
				V172.1c0-1.28-0.07-2.52-0.18-3.73l-5.05,0.47v5.07h41.72c1.65,0,3.19,0.33,4.6,0.93c2.11,0.89,3.93,2.4,5.2,4.29
				c1.28,1.89,2.01,4.14,2.02,6.61v391.3c0,1.65-0.33,3.19-0.93,4.6c-0.89,2.11-2.4,3.93-4.29,5.21c-1.89,1.28-4.14,2.01-6.61,2.02
				H260.91c-1.65,0-3.19-0.33-4.6-0.93c-2.11-0.89-3.93-2.4-5.2-4.29c-1.28-1.89-2.01-4.14-2.02-6.61v-391.3
				c0-1.65,0.33-3.19,0.93-4.6c0.89-2.11,2.4-3.93,4.29-5.21c1.89-1.28,4.14-2.01,6.61-2.02h47.91V168.84l-5.05-0.47L308.82,168.84
				L308.82,168.84z"/>
			<path d="M324.63,489.5c-0.79,0-1.56,0.39-2.01,1.11l-25.18,40.22l-9.61-12.38c-0.3-0.39-0.78-0.63-1.28-0.63
				c-0.13,0-0.25,0.01-0.38,0.05c-0.87,0.21-1.41,1.09-1.2,1.96l6.51,26.98c0.51,2.05,1.96,3.87,4.06,4.72
				c0.84,0.34,1.71,0.5,2.57,0.5c2.69,0,5.25-1.61,6.33-4.26l0.33-0.81l22.05-54.22c0.43-1.04,0.05-2.28-0.93-2.89
				C325.49,489.61,325.06,489.5,324.63,489.5L324.63,489.5z M331.22,495.99L331.22,495.99L331.22,495.99"/>
			<path d="M324.63,405.53c-0.79,0-1.56,0.39-2.01,1.11l-25.18,40.22l-9.61-12.38c-0.3-0.39-0.78-0.63-1.28-0.63
				c-0.13,0-0.25,0.01-0.38,0.05c-0.87,0.21-1.41,1.09-1.2,1.96l6.51,26.98c0.51,2.05,1.96,3.87,4.06,4.72
				c0.84,0.34,1.71,0.51,2.57,0.51c2.69,0,5.25-1.61,6.33-4.26l0.33-0.81l22.05-54.22c0.43-1.04,0.05-2.27-0.93-2.89
				C325.49,405.65,325.06,405.53,324.63,405.53L324.63,405.53z M331.22,412.03L331.22,412.03L331.22,412.03"/>
			<path d="M541.69,259.4H388.25c-4.2,0-7.61,3.41-7.61,7.61c0,4.2,3.41,7.61,7.61,7.61h153.44c4.2,0,7.61-3.41,7.61-7.61
				C549.3,262.81,545.89,259.4,541.69,259.4L541.69,259.4z"/>
			<path d="M489.75,285.38h-101.5c-4.2,0-7.61,3.41-7.61,7.61c0,4.2,3.41,7.61,7.61,7.61h101.5c4.2,0,7.61-3.41,7.61-7.61
				C497.36,288.78,493.95,285.38,489.75,285.38L489.75,285.38z"/>
			<path d="M541.69,335.88H388.25c-4.2,0-7.61,3.41-7.61,7.61c0,4.2,3.41,7.61,7.61,7.61h153.44c4.2,0,7.61-3.41,7.61-7.61
				C549.3,339.29,545.89,335.88,541.69,335.88L541.69,335.88z"/>
			<path d="M489.75,361.86h-101.5c-4.2,0-7.61,3.41-7.61,7.61c0,4.2,3.41,7.61,7.61,7.61h101.5c4.2,0,7.61-3.41,7.61-7.61
				C497.36,365.26,493.95,361.86,489.75,361.86L489.75,361.86z"/>
			<path d="M541.69,416.2H388.25c-4.2,0-7.61,3.41-7.61,7.61c0,4.2,3.41,7.61,7.61,7.61h153.44c4.2,0,7.61-3.41,7.61-7.61
				C549.3,419.61,545.89,416.2,541.69,416.2L541.69,416.2z"/>
			<path d="M489.75,442.18h-101.5c-4.2,0-7.61,3.41-7.61,7.61c0,4.2,3.41,7.61,7.61,7.61h101.5c4.2,0,7.61-3.41,7.61-7.61
				C497.36,445.59,493.95,442.18,489.75,442.18L489.75,442.18z"/>
			<path d="M541.69,500.17H388.25c-4.2,0-7.61,3.41-7.61,7.61s3.41,7.61,7.61,7.61h153.44c4.2,0,7.61-3.41,7.61-7.61
				S545.89,500.17,541.69,500.17L541.69,500.17z"/>
			<path d="M489.75,526.14h-101.5c-4.2,0-7.61,3.41-7.61,7.61c0,4.2,3.41,7.61,7.61,7.61h101.5c4.2,0,7.61-3.41,7.61-7.61
				C497.36,529.55,493.95,526.14,489.75,526.14L489.75,526.14z"/>
			<path d="M280.61,330.8c-1.27,0-2.54,0.49-3.51,1.46c-1.94,1.94-1.94,5.09,0,7.03l17.19,17.19l-17.19,17.19
				c-1.94,1.94-1.94,5.09,0,7.03c0.97,0.97,2.24,1.46,3.51,1.46c1.27,0,2.54-0.49,3.51-1.46l17.19-17.19l17.19,17.19
				c0.97,0.97,2.24,1.46,3.51,1.46c1.27,0,2.54-0.49,3.51-1.46c1.94-1.94,1.94-5.09,0-7.03l-17.19-17.19l17.19-17.19
				c1.94-1.94,1.94-5.09,0-7.03c-0.97-0.97-2.24-1.46-3.51-1.46c-1.27,0-2.54,0.49-3.51,1.46l-17.19,17.19l-17.19-17.19
				C283.15,331.29,281.88,330.8,280.61,330.8L280.61,330.8z M325.68,339.43L325.68,339.43L325.68,339.43"/>
			<path d="M324.63,250.99c-0.79,0-1.56,0.39-2.01,1.11l-25.18,40.22l-9.61-12.38c-0.3-0.39-0.78-0.63-1.28-0.63
				c-0.13,0-0.25,0.01-0.38,0.05c-0.87,0.21-1.41,1.09-1.2,1.96l6.51,26.98c0.51,2.05,1.96,3.87,4.06,4.72
				c0.84,0.34,1.71,0.5,2.57,0.5c2.69,0,5.25-1.61,6.33-4.26l0.33-0.81l22.05-54.22c0.43-1.04,0.05-2.28-0.93-2.89
				C325.49,251.1,325.06,250.99,324.63,250.99L324.63,250.99z M331.22,257.48L331.22,257.48L331.22,257.48"/>
		</g>
	</g>
</g>
</svg>
