<svg width="12" height="12" viewBox="0 0 12 12" fill="none" xmlns="http://www.w3.org/2000/svg">
<path d="M5.31949 3.91586C5.34143 3.95973 5.36337 4.00361 5.38531 4.03651C5.40724 4.06942 5.44015 4.10233 5.46209 4.13523C5.495 4.16814 5.5279 4.20105 5.57178 4.23395C5.60468 4.25589 5.64856 4.2888 5.70341 4.29977C5.74728 4.3217 5.79116 4.33267 5.846 4.34364C5.90085 4.35461 5.94472 4.35461 5.9886 4.35461C6.03247 4.35461 6.08732 4.35461 6.13119 4.34364C6.17507 4.33267 6.21894 4.3217 6.25185 4.29977H6.26282C6.3067 4.27783 6.35057 4.25589 6.39445 4.22298C6.42735 4.20105 6.46026 4.16814 6.49317 4.13523L6.50414 4.12426C6.53704 4.09136 6.55898 4.05845 6.58092 4.02555C6.60286 3.99264 6.62479 3.95973 6.63576 3.91586C6.63576 3.90489 6.63576 3.90489 6.64673 3.89392C6.66867 3.85004 6.67964 3.7952 6.69061 3.75132C6.70158 3.70745 6.70158 3.6526 6.70158 3.60873C6.70158 3.56485 6.70158 3.51001 6.69061 3.46613C6.67964 3.42226 6.66867 3.37838 6.64673 3.32354C6.61383 3.24676 6.56995 3.18094 6.51511 3.1261C6.50414 3.11513 6.50414 3.11513 6.49317 3.10416C6.46026 3.07125 6.42735 3.04932 6.38348 3.01641C6.3396 2.99447 6.3067 2.97253 6.26282 2.9506C6.21894 2.92866 6.17507 2.91769 6.13119 2.90672C6.07635 2.89575 6.03247 2.89575 5.9886 2.89575C5.94472 2.89575 5.88988 2.89575 5.846 2.90672C5.80213 2.91769 5.75825 2.92866 5.71437 2.9506H5.70341C5.65953 2.97253 5.61565 2.99447 5.58275 3.01641C5.53887 3.04932 5.50596 3.07125 5.47306 3.10416C5.44015 3.13707 5.40724 3.16997 5.38531 3.20288C5.36337 3.23579 5.34143 3.27966 5.31949 3.32354C5.29756 3.36741 5.28659 3.41129 5.27562 3.45516C5.26465 3.51001 5.26465 3.55388 5.26465 3.59776C5.26465 3.64163 5.26465 3.69648 5.27562 3.74035C5.28659 3.82811 5.30852 3.87198 5.31949 3.91586Z" fill="#5A5A5A"/>
<path d="M6.84452 7.9306H6.59224V5.2432C6.59224 5.08964 6.47158 4.95801 6.30705 4.95801H5.15531C5.00174 4.95801 4.87012 5.07867 4.87012 5.2432V5.83552C4.87012 5.98909 4.99078 6.12072 5.15531 6.12072H5.38566V7.94157H5.15531C5.00174 7.94157 4.87012 8.06222 4.87012 8.22676V8.81908C4.87012 8.97265 4.99078 9.10428 5.15531 9.10428H6.84452C6.99809 9.10428 7.12971 8.98362 7.12971 8.81908V8.22676C7.12971 8.06222 6.99809 7.9306 6.84452 7.9306Z" fill="#5A5A5A"/>
<path d="M6 0C2.68739 0 0 2.68739 0 6C0 9.31261 2.68739 12 6 12C9.31261 12 12 9.31261 12 6C12 2.68739 9.31261 0 6 0ZM6 11.2102C3.12614 11.2102 0.789762 8.87386 0.789762 6C0.789762 3.12614 3.12614 0.789762 6 0.789762C8.87386 0.789762 11.2102 3.12614 11.2102 6C11.2102 8.87386 8.87386 11.2102 6 11.2102Z" fill="#5A5A5A"/>
</svg>
