<svg width="37" height="37" viewBox="0 0 37 37" fill="none" xmlns="http://www.w3.org/2000/svg">
<path d="M18.5 1C8.83512 1 1 8.83512 1 18.5C1 28.1649 8.83512 36 18.5 36C28.1649 36 36 28.1649 36 18.5C35.9892 8.83968 28.1603 1.01082 18.5 1ZM18.5 34.8333C9.47941 34.8333 2.16667 27.5206 2.16667 18.5C2.16667 9.47941 9.47941 2.16667 18.5 2.16667C27.5206 2.16667 34.8333 9.47941 34.8333 18.5C34.8231 27.5163 27.5163 34.8231 18.5 34.8333Z" fill="#212121" stroke="white" stroke-width="0.5"/>
<path d="M22.75 9H15.25C11.7988 9 9 11.7988 9 15.25V22.75C9 26.2013 11.7988 29 15.25 29H22.75C26.2013 29 29 26.2013 29 22.75V15.25C29 11.7988 26.2013 9 22.75 9ZM27.125 22.75C27.125 25.1625 25.1625 27.125 22.75 27.125H15.25C12.8375 27.125 10.875 25.1625 10.875 22.75V15.25C10.875 12.8375 12.8375 10.875 15.25 10.875H22.75C25.1625 10.875 27.125 12.8375 27.125 15.25V22.75Z" fill="#212121"/>
<path d="M19 14C16.2387 14 14 16.2387 14 19C14 21.7613 16.2387 24 19 24C21.7613 24 24 21.7613 24 19C24 16.2387 21.7613 14 19 14ZM19 22.125C17.2775 22.125 15.875 20.7225 15.875 19C15.875 17.2763 17.2775 15.875 19 15.875C20.7225 15.875 22.125 17.2763 22.125 19C22.125 20.7225 20.7225 22.125 19 22.125Z" fill="#212121"/>
<path d="M24.3752 14.2915C24.7432 14.2915 25.0415 13.9932 25.0415 13.6252C25.0415 13.2573 24.7432 12.959 24.3752 12.959C24.0073 12.959 23.709 13.2573 23.709 13.6252C23.709 13.9932 24.0073 14.2915 24.3752 14.2915Z" fill="#212121"/>
</svg>
