<svg width="35" height="35" viewBox="0 0 35 35" fill="none" xmlns="http://www.w3.org/2000/svg">
<path d="M25.5773 14.4138C25.5773 10.785 22.5657 7.4043 17.9903 7.4043C12.2948 7.4043 9.4248 11.5725 9.4248 15.0487C9.4248 17.1534 10.2044 19.0259 11.8796 19.7228C12.1532 19.8373 12.3998 19.726 12.4794 19.4172C12.5335 19.2025 12.6655 18.66 12.7228 18.4357C12.8039 18.1287 12.7721 18.022 12.551 17.7531C12.0673 17.1693 11.7603 16.4184 11.7603 15.3524C11.7603 12.2613 14.0257 9.49314 17.661 9.49314C20.8794 9.49314 22.6485 11.5008 22.6485 14.1815C22.6485 17.7102 21.1196 20.6868 18.8478 20.6868C17.5926 20.6868 16.6555 19.6288 16.9562 18.3307C17.3158 16.7812 18.0142 15.1075 18.0142 13.9891C18.0142 12.9884 17.4876 12.1516 16.3978 12.1516C15.1156 12.1516 14.0862 13.5054 14.0862 15.3191C14.0862 16.4741 14.4696 17.2552 14.4696 17.2552C14.4696 17.2552 13.1571 22.93 12.928 23.9227C12.7196 24.8279 12.6878 25.8222 12.7164 26.6622C12.8039 27.4163 13.5342 28.0304 14.1673 27.2031C14.6128 26.4761 15.0917 25.5581 15.3398 24.6386C15.4878 24.0945 16.183 21.2754 16.183 21.2754C16.5998 22.0868 17.8169 22.8011 19.1119 22.8011C22.9634 22.7995 25.5773 19.2136 25.5773 14.4138Z" fill="#212121"/>
<path d="M35 17.5C35 7.8352 27.1647 0 17.5 0C7.8352 0 0 7.8352 0 17.5C0 27.1647 7.8352 35 17.5 35C27.1647 35 35 27.1647 35 17.5ZM1.5909 17.5C1.5909 8.7134 8.7134 1.5909 17.5 1.5909C26.2866 1.5909 33.4091 8.7134 33.4091 17.5C33.4091 26.2866 26.2866 33.4091 17.5 33.4091C8.7134 33.4091 1.5909 26.2866 1.5909 17.5Z" fill="#212121"/>
</svg>
