<svg width="35" height="35" viewBox="0 0 35 35" fill="none" xmlns="http://www.w3.org/2000/svg">
<path d="M25.0039 14.0211C25.0039 13.8445 25.0007 13.6695 24.9928 13.4961C25.7485 12.9329 26.4039 12.2282 26.9226 11.4216C26.2289 11.7334 25.4844 11.9418 24.7016 12.0293C25.5003 11.5377 26.1128 10.7518 26.4023 9.80835C25.6546 10.2618 24.8273 10.5863 23.9475 10.755C23.2428 9.9531 22.2373 9.44245 21.1252 9.42335C18.9902 9.38835 17.2593 11.1925 17.2593 13.4531C17.2593 13.7745 17.2927 14.0863 17.3595 14.387C14.1443 14.1802 11.295 12.5065 9.38908 9.98335C9.05658 10.5879 8.86568 11.2943 8.86568 12.0516C8.86568 13.4834 9.54818 14.7561 10.5854 15.507C9.95068 15.4784 9.35568 15.2859 8.83388 14.9709C8.83388 14.9884 8.83388 15.0059 8.83388 15.0234C8.83388 17.0248 10.1671 18.7016 11.9361 19.0929C11.6116 19.1852 11.2695 19.2329 10.9179 19.2314C10.6682 19.2298 10.4263 19.2027 10.1909 19.1518C10.6825 20.792 12.1111 21.99 13.8022 22.0297C12.4786 23.1274 10.8113 23.7829 9.00088 23.7781C8.68902 23.7781 8.38043 23.7575 8.07812 23.7193C9.78998 24.8934 11.8215 25.5774 14.0058 25.5774C21.1157 25.5791 25.0039 19.3904 25.0039 14.0211Z" fill="#212121"/>
<path d="M35 17.5C35 7.8352 27.1647 0 17.5 0C7.8352 0 0 7.8352 0 17.5C0 27.1647 7.8352 35 17.5 35C27.1647 35 35 27.1647 35 17.5ZM1.5909 17.5C1.5909 8.7134 8.7134 1.5909 17.5 1.5909C26.2866 1.5909 33.4091 8.7134 33.4091 17.5C33.4091 26.2866 26.2866 33.4091 17.5 33.4091C8.7134 33.4091 1.5909 26.2866 1.5909 17.5Z" fill="#212121"/>
</svg>
